<svg xmlns="http://www.w3.org/2000/svg" xmlns:xlink="http://www.w3.org/1999/xlink" width="1080" zoomAndPan="magnify" viewBox="0 0 810 974.999993" height="1300" preserveAspectRatio="xMidYMid meet" version="1.0"><defs><clipPath id="a088509285"><path d="M 39.765625 218 L 770.265625 218 L 770.265625 842 L 39.765625 842 Z M 39.765625 218 " clip-rule="nonzero"/></clipPath></defs><g clip-path="url(#a088509285)"><path fill="#5e17eb" d="M 663.515625 734.542969 C 732.214844 665.699219 770.265625 574.050781 770.265625 476.484375 L 760.046875 476.484375 C 760.046875 571.238281 723.183594 660.367188 656.261719 727.289062 C 589.339844 794.210938 499.769531 831.519531 405.015625 831.519531 C 310.257812 831.519531 220.984375 794.652344 154.0625 727.585938 C 86.992188 660.515625 49.980469 571.386719 49.980469 476.484375 C 49.980469 381.730469 86.84375 292.453125 153.914062 225.53125 L 146.660156 218.277344 C 77.8125 287.269531 39.765625 378.917969 39.765625 476.484375 C 39.765625 574.050781 77.8125 665.847656 146.808594 734.839844 C 215.800781 803.832031 307.445312 841.734375 405.015625 841.734375 C 502.433594 841.734375 594.375 803.390625 663.367188 734.691406 C 663.367188 734.691406 663.367188 734.691406 663.515625 734.542969 Z M 663.515625 734.542969 " fill-opacity="1" fill-rule="nonzero"/></g><path fill="#5e17eb" d="M 162.351562 719.292969 C 162.5 719.441406 162.5 719.441406 162.5 719.441406 C 227.347656 784.140625 313.367188 819.824219 405.015625 819.824219 C 496.660156 819.824219 582.828125 784.140625 647.675781 719.292969 C 712.523438 654.445312 748.203125 568.277344 748.203125 476.632812 L 730.4375 476.632812 C 730.4375 563.394531 696.53125 645.117188 635.089844 706.710938 C 573.648438 768.152344 491.921875 802.054688 405.015625 802.054688 C 318.105469 801.910156 236.378906 768.152344 175.085938 706.710938 C 113.644531 645.265625 79.589844 563.246094 79.589844 476.484375 C 79.589844 389.578125 113.496094 307.851562 174.9375 246.40625 C 236.378906 184.964844 318.105469 151.0625 405.015625 151.0625 C 491.921875 151.0625 573.648438 185.113281 635.089844 246.40625 C 696.53125 307.851562 730.4375 389.578125 730.4375 476.484375 L 748.203125 476.484375 C 748.203125 384.988281 712.671875 298.820312 647.824219 233.972656 C 647.824219 233.972656 647.824219 233.972656 647.675781 233.824219 C 647.675781 233.824219 647.675781 233.824219 647.527344 233.675781 C 582.976562 169.125 496.511719 133.292969 405.015625 133.292969 C 313.367188 133.292969 227.199219 168.976562 162.351562 233.824219 C 97.503906 298.671875 61.824219 384.839844 61.824219 476.484375 C 61.824219 567.980469 97.652344 654.445312 162.351562 719.292969 Z M 162.351562 719.292969 " fill-opacity="1" fill-rule="nonzero"/><path fill="#5e17eb" d="M 133.1875 335.832031 C 134.222656 335.832031 135.109375 335.242188 135.554688 334.351562 C 136.445312 332.722656 137.183594 331.242188 138.070312 329.613281 C 138.8125 328.28125 138.367188 326.652344 137.035156 325.914062 C 135.703125 325.171875 134.074219 325.617188 133.335938 326.949219 C 132.445312 328.578125 131.558594 330.207031 130.667969 331.835938 C 129.929688 333.167969 130.519531 334.796875 131.855469 335.535156 C 132.296875 335.683594 132.742188 335.832031 133.1875 335.832031 Z M 133.1875 335.832031 " fill-opacity="1" fill-rule="nonzero"/><path fill="#5e17eb" d="M 121.488281 360.410156 C 122.527344 360.410156 123.5625 359.816406 124.007812 358.78125 C 124.746094 357.152344 125.488281 355.523438 126.078125 353.746094 C 126.671875 352.414062 126.078125 350.785156 124.746094 350.195312 C 123.414062 349.601562 121.785156 350.195312 121.195312 351.527344 C 120.453125 353.15625 119.714844 354.933594 118.972656 356.558594 C 118.382812 358.039062 118.972656 359.667969 120.453125 360.261719 C 120.75 360.410156 121.195312 360.410156 121.488281 360.410156 Z M 121.488281 360.410156 " fill-opacity="1" fill-rule="nonzero"/><path fill="#5e17eb" d="M 146.808594 312.292969 C 147.695312 312.292969 148.585938 311.847656 149.027344 311.109375 C 150.066406 309.628906 150.953125 308.148438 151.988281 306.664062 C 152.878906 305.480469 152.433594 303.703125 151.25 302.816406 C 150.066406 301.929688 148.289062 302.371094 147.398438 303.558594 C 146.363281 305.039062 145.328125 306.664062 144.4375 308.148438 C 143.699219 309.332031 144.140625 311.109375 145.328125 311.847656 C 145.769531 312.144531 146.363281 312.292969 146.808594 312.292969 Z M 146.808594 312.292969 " fill-opacity="1" fill-rule="nonzero"/><path fill="#5e17eb" d="M 98.246094 430.441406 C 97.949219 432.214844 97.652344 433.992188 97.503906 435.917969 C 97.355469 437.398438 98.394531 438.730469 99.875 439.027344 C 100.023438 439.027344 100.171875 439.027344 100.171875 439.027344 C 101.503906 439.027344 102.6875 437.992188 102.835938 436.65625 C 103.132812 434.882812 103.28125 433.105469 103.574219 431.328125 C 103.871094 429.847656 102.835938 428.367188 101.355469 428.21875 C 99.875 428.070312 98.542969 428.960938 98.246094 430.441406 Z M 98.246094 430.441406 " fill-opacity="1" fill-rule="nonzero"/><path fill="#5e17eb" d="M 95.582031 457.679688 C 95.433594 459.457031 95.433594 461.382812 95.285156 463.160156 C 95.285156 464.640625 96.320312 465.972656 97.949219 465.972656 L 98.097656 465.972656 C 99.578125 465.972656 100.761719 464.789062 100.761719 463.308594 C 100.910156 461.53125 100.910156 459.753906 101.058594 457.976562 C 100.910156 456.496094 99.875 455.3125 98.394531 455.164062 C 96.914062 455.015625 95.582031 456.199219 95.582031 457.679688 Z M 95.582031 457.679688 " fill-opacity="1" fill-rule="nonzero"/><path fill="#5e17eb" d="M 503.765625 188.222656 C 505.542969 188.816406 507.171875 189.40625 508.800781 190 C 509.097656 190.148438 509.390625 190.148438 509.6875 190.148438 C 510.871094 190.148438 511.910156 189.40625 512.207031 188.371094 C 512.648438 186.890625 512.058594 185.410156 510.578125 184.816406 C 508.800781 184.226562 507.171875 183.632812 505.394531 183.039062 C 503.914062 182.597656 502.433594 183.335938 501.988281 184.667969 C 501.546875 186.296875 502.285156 187.777344 503.765625 188.222656 Z M 503.765625 188.222656 " fill-opacity="1" fill-rule="nonzero"/><path fill="#5e17eb" d="M 164.871094 289.195312 C 165.90625 287.714844 167.089844 286.382812 168.273438 284.902344 C 169.164062 283.71875 169.015625 282.089844 167.832031 281.050781 C 166.648438 280.164062 165.019531 280.3125 163.980469 281.496094 C 162.796875 282.976562 161.761719 284.308594 160.578125 285.789062 C 159.539062 286.976562 159.835938 288.601562 161.019531 289.640625 C 161.464844 290.082031 162.058594 290.230469 162.648438 290.230469 C 163.390625 290.230469 164.277344 289.9375 164.871094 289.195312 Z M 164.871094 289.195312 " fill-opacity="1" fill-rule="nonzero"/><path fill="#5e17eb" d="M 182.191406 268.617188 C 183.375 267.285156 184.710938 265.949219 185.894531 264.765625 C 186.929688 263.730469 186.929688 261.953125 185.894531 260.917969 C 184.855469 259.878906 183.082031 259.878906 182.042969 260.917969 C 180.710938 262.25 179.527344 263.582031 178.195312 264.914062 C 177.160156 265.949219 177.160156 267.726562 178.34375 268.765625 C 178.933594 269.207031 179.675781 269.503906 180.269531 269.503906 C 181.007812 269.503906 181.75 269.207031 182.191406 268.617188 Z M 182.191406 268.617188 " fill-opacity="1" fill-rule="nonzero"/><path fill="#5e17eb" d="M 109.644531 571.386719 C 109.941406 572.570312 111.125 573.3125 112.3125 573.3125 C 112.605469 573.3125 112.902344 573.3125 113.199219 573.164062 C 114.679688 572.71875 115.417969 571.238281 114.976562 569.757812 C 114.234375 567.980469 113.792969 566.355469 113.199219 564.578125 C 112.753906 563.097656 111.273438 562.355469 109.792969 562.800781 C 108.3125 563.246094 107.574219 564.726562 108.015625 566.207031 C 108.609375 567.980469 109.054688 569.757812 109.644531 571.386719 Z M 109.644531 571.386719 " fill-opacity="1" fill-rule="nonzero"/><path fill="#5e17eb" d="M 104.464844 412.230469 C 104.613281 412.230469 104.90625 412.230469 105.054688 412.230469 C 106.242188 412.230469 107.425781 411.339844 107.722656 410.15625 C 108.164062 408.378906 108.460938 406.601562 108.90625 404.972656 C 109.203125 403.34375 108.3125 401.863281 106.832031 401.570312 C 105.351562 401.273438 103.871094 402.160156 103.574219 403.640625 C 103.132812 405.417969 102.6875 407.195312 102.390625 408.972656 C 102.09375 410.453125 102.984375 411.933594 104.464844 412.230469 Z M 104.464844 412.230469 " fill-opacity="1" fill-rule="nonzero"/><path fill="#5e17eb" d="M 97.800781 517.941406 C 97.949219 519.273438 99.132812 520.308594 100.464844 520.308594 C 100.613281 520.308594 100.761719 520.308594 100.761719 520.308594 C 102.242188 520.160156 103.28125 518.679688 102.984375 517.199219 C 102.6875 515.421875 102.539062 513.644531 102.390625 511.871094 C 102.242188 510.390625 100.910156 509.351562 99.429688 509.5 C 97.949219 509.648438 96.914062 510.980469 97.0625 512.460938 C 97.210938 514.238281 97.503906 516.164062 97.800781 517.941406 Z M 97.800781 517.941406 " fill-opacity="1" fill-rule="nonzero"/><path fill="#5e17eb" d="M 483.039062 182.003906 C 483.335938 182.003906 483.484375 182.152344 483.777344 182.152344 C 484.964844 182.152344 486.148438 181.410156 486.445312 180.078125 C 486.886719 178.597656 486 177.117188 484.519531 176.820312 C 482.742188 176.378906 480.964844 175.933594 479.1875 175.488281 C 477.707031 175.195312 476.226562 176.082031 475.933594 177.414062 C 475.488281 178.894531 476.375 180.375 477.855469 180.671875 C 479.632812 181.117188 481.410156 181.558594 483.039062 182.003906 Z M 483.039062 182.003906 " fill-opacity="1" fill-rule="nonzero"/><path fill="#5e17eb" d="M 102.539062 545.035156 C 102.835938 546.367188 104.019531 547.105469 105.203125 547.105469 C 105.351562 547.105469 105.648438 547.105469 105.796875 547.105469 C 107.277344 546.808594 108.164062 545.328125 107.867188 543.847656 C 107.425781 541.925781 106.980469 540.296875 106.683594 538.519531 C 106.386719 537.039062 104.90625 536.152344 103.425781 536.445312 C 101.945312 536.742188 101.058594 538.222656 101.355469 539.703125 C 101.800781 541.480469 102.09375 543.257812 102.539062 545.035156 Z M 102.539062 545.035156 " fill-opacity="1" fill-rule="nonzero"/><path fill="#5e17eb" d="M 111.125 385.875 C 111.421875 386.023438 111.71875 386.023438 112.015625 386.023438 C 113.199219 386.023438 114.234375 385.28125 114.679688 384.097656 C 115.273438 382.320312 115.714844 380.691406 116.308594 378.917969 C 116.753906 377.4375 116.011719 375.957031 114.53125 375.511719 C 113.050781 375.066406 111.570312 375.808594 111.125 377.289062 C 110.535156 379.066406 109.941406 380.839844 109.351562 382.46875 C 108.90625 383.949219 109.644531 385.429688 111.125 385.875 Z M 111.125 385.875 " fill-opacity="1" fill-rule="nonzero"/><path fill="#5e17eb" d="M 533.671875 200.363281 C 534.117188 200.511719 534.414062 200.660156 534.859375 200.660156 C 535.894531 200.660156 536.929688 200.066406 537.375 199.03125 C 537.96875 197.699219 537.375 196.070312 536.042969 195.476562 C 534.414062 194.738281 532.785156 193.996094 531.007812 193.257812 C 529.675781 192.664062 528.046875 193.257812 527.453125 194.589844 C 526.863281 195.921875 527.453125 197.550781 528.789062 198.140625 C 530.417969 198.882812 532.042969 199.621094 533.671875 200.363281 Z M 533.671875 200.363281 " fill-opacity="1" fill-rule="nonzero"/><path fill="#5e17eb" d="M 95.285156 490.699219 C 95.285156 492.03125 96.46875 493.214844 98.097656 493.214844 C 99.578125 493.214844 100.761719 491.882812 100.761719 490.402344 C 100.613281 488.625 100.613281 486.847656 100.613281 485.070312 C 100.613281 483.589844 99.28125 482.40625 97.800781 482.40625 C 96.320312 482.40625 95.136719 483.738281 95.136719 485.21875 C 95.136719 486.996094 95.285156 488.921875 95.285156 490.699219 Z M 95.285156 490.699219 " fill-opacity="1" fill-rule="nonzero"/><path fill="#5e17eb" d="M 620.582031 261.363281 C 620.878906 261.65625 621.320312 262.101562 621.46875 262.25 C 622.0625 262.84375 622.652344 262.988281 623.394531 262.988281 C 624.132812 262.988281 624.726562 262.695312 625.320312 262.25 C 626.355469 261.214844 626.355469 259.4375 625.320312 258.398438 C 625.023438 258.105469 624.578125 257.660156 624.28125 257.363281 C 623.246094 256.476562 622.359375 255.4375 621.46875 254.550781 C 620.433594 253.515625 618.65625 253.515625 617.621094 254.550781 C 616.582031 255.585938 616.582031 257.363281 617.621094 258.398438 C 618.507812 259.289062 619.542969 260.472656 620.582031 261.363281 Z M 620.582031 261.363281 " fill-opacity="1" fill-rule="nonzero"/><path fill="#5e17eb" d="M 456.832031 176.378906 C 456.980469 176.378906 457.128906 176.378906 457.277344 176.378906 C 458.609375 176.378906 459.792969 175.488281 459.941406 174.15625 C 460.238281 172.675781 459.203125 171.195312 457.722656 171.046875 C 455.945312 170.753906 454.167969 170.457031 452.242188 170.160156 C 450.761719 169.863281 449.429688 170.898438 449.132812 172.378906 C 448.839844 173.859375 450.023438 175.195312 451.503906 175.488281 C 453.28125 175.785156 455.054688 176.082031 456.832031 176.378906 Z M 456.832031 176.378906 " fill-opacity="1" fill-rule="nonzero"/><path fill="#5e17eb" d="M 201.585938 249.664062 C 202.921875 248.480469 204.253906 247.296875 205.585938 246.113281 C 206.769531 245.074219 206.917969 243.445312 205.882812 242.261719 C 204.84375 241.078125 203.214844 240.929688 202.03125 241.964844 C 200.699219 243.152344 199.21875 244.335938 197.886719 245.667969 C 196.851562 246.703125 196.703125 248.480469 197.738281 249.515625 C 198.332031 250.109375 199.070312 250.40625 199.8125 250.40625 C 200.402344 250.40625 201.144531 250.109375 201.585938 249.664062 Z M 201.585938 249.664062 " fill-opacity="1" fill-rule="nonzero"/><path fill="#5e17eb" d="M 118.675781 588.5625 C 117.34375 589.152344 116.605469 590.78125 117.195312 592.113281 C 117.9375 593.742188 118.527344 595.519531 119.269531 597.148438 C 119.714844 598.183594 120.75 598.777344 121.785156 598.777344 C 122.082031 598.777344 122.527344 598.777344 122.824219 598.628906 C 124.15625 598.039062 124.894531 596.410156 124.304688 595.078125 C 123.5625 593.300781 122.824219 591.671875 122.230469 590.042969 C 121.636719 588.710938 120.15625 587.96875 118.675781 588.5625 Z M 118.675781 588.5625 " fill-opacity="1" fill-rule="nonzero"/><path fill="#5e17eb" d="M 715.039062 475.890625 C 715.039062 474.410156 713.855469 473.226562 712.375 473.226562 C 710.894531 473.226562 709.710938 474.410156 709.710938 475.890625 L 709.710938 476.484375 L 715.1875 476.484375 Z M 715.039062 475.890625 " fill-opacity="1" fill-rule="nonzero"/><path fill="#5e17eb" d="M 222.316406 232.640625 C 223.796875 231.601562 225.128906 230.566406 226.609375 229.382812 C 227.792969 228.492188 228.089844 226.863281 227.199219 225.53125 C 226.3125 224.199219 224.683594 224.050781 223.351562 224.941406 C 221.871094 225.976562 220.390625 227.160156 218.910156 228.195312 C 217.726562 229.085938 217.429688 230.863281 218.316406 232.046875 C 219.058594 232.785156 219.945312 233.230469 220.6875 233.230469 C 221.277344 233.230469 221.871094 233.082031 222.316406 232.640625 Z M 222.316406 232.640625 " fill-opacity="1" fill-rule="nonzero"/><path fill="#5e17eb" d="M 714.890625 482.109375 C 714.890625 480.332031 714.890625 478.410156 714.890625 476.632812 L 709.414062 476.632812 C 709.5625 478.410156 709.5625 480.1875 709.5625 481.960938 C 709.5625 483.441406 710.746094 484.777344 712.226562 484.777344 C 713.707031 484.777344 714.890625 483.589844 714.890625 482.109375 Z M 714.890625 482.109375 " fill-opacity="1" fill-rule="nonzero"/><path fill="#5e17eb" d="M 430.480469 167.496094 C 428.703125 167.347656 426.777344 167.199219 425 167.050781 C 423.519531 166.902344 422.1875 168.085938 422.039062 169.566406 C 422.039062 171.195312 423.226562 172.527344 424.707031 172.527344 C 426.480469 172.675781 428.257812 172.824219 430.035156 172.972656 C 430.183594 172.972656 430.183594 172.972656 430.332031 172.972656 C 431.664062 172.972656 432.996094 171.9375 432.996094 170.457031 C 433.144531 168.976562 431.960938 167.644531 430.480469 167.496094 Z M 430.480469 167.496094 " fill-opacity="1" fill-rule="nonzero"/><path fill="#5e17eb" d="M 243.191406 217.832031 C 243.636719 217.832031 244.226562 217.683594 244.671875 217.390625 C 246.152344 216.5 247.78125 215.464844 249.261719 214.574219 C 250.59375 213.835938 251.039062 212.058594 250.148438 210.875 C 249.410156 209.542969 247.78125 209.097656 246.449219 209.988281 C 244.820312 210.875 243.339844 211.910156 241.710938 212.800781 C 240.378906 213.539062 240.082031 215.316406 240.820312 216.5 C 241.414062 217.390625 242.300781 217.832031 243.191406 217.832031 Z M 243.191406 217.832031 " fill-opacity="1" fill-rule="nonzero"/><path fill="#5e17eb" d="M 504.359375 764.597656 C 502.730469 765.191406 500.953125 765.78125 499.175781 766.375 C 497.695312 766.820312 496.957031 768.449219 497.398438 769.78125 C 497.84375 770.964844 498.878906 771.707031 499.917969 771.707031 C 500.214844 771.707031 500.507812 771.707031 500.804688 771.558594 C 502.582031 770.964844 504.210938 770.371094 505.988281 769.78125 C 507.46875 769.335938 508.207031 767.707031 507.617188 766.375 C 507.320312 764.894531 505.839844 764.15625 504.359375 764.597656 Z M 504.359375 764.597656 " fill-opacity="1" fill-rule="nonzero"/><path fill="#5e17eb" d="M 687.355469 348.269531 C 686.613281 346.640625 685.875 345.011719 684.984375 343.382812 C 684.394531 342.050781 682.765625 341.457031 681.285156 342.050781 C 679.949219 342.644531 679.359375 344.273438 679.949219 345.753906 C 680.839844 347.234375 681.578125 348.863281 682.320312 350.488281 C 682.765625 351.527344 683.800781 352.117188 684.835938 352.117188 C 685.28125 352.117188 685.578125 351.972656 686.019531 351.824219 C 687.355469 351.230469 687.945312 349.601562 687.355469 348.269531 Z M 687.355469 348.269531 " fill-opacity="1" fill-rule="nonzero"/><path fill="#5e17eb" d="M 478.597656 772.296875 C 476.820312 772.742188 475.042969 773.1875 473.414062 773.480469 C 471.933594 773.777344 471.046875 775.257812 471.34375 776.738281 C 471.636719 778.070312 472.824219 778.8125 474.007812 778.8125 C 474.15625 778.8125 474.453125 778.8125 474.597656 778.8125 C 476.375 778.367188 478.152344 777.921875 479.929688 777.480469 C 481.410156 777.183594 482.296875 775.703125 481.855469 774.222656 C 481.558594 772.742188 480.078125 771.851562 478.597656 772.296875 Z M 478.597656 772.296875 " fill-opacity="1" fill-rule="nonzero"/><path fill="#5e17eb" d="M 452.09375 777.628906 C 450.320312 777.921875 448.542969 778.21875 446.765625 778.367188 C 445.285156 778.515625 444.25 779.996094 444.398438 781.476562 C 444.542969 782.808594 445.730469 783.847656 447.0625 783.847656 C 447.210938 783.847656 447.359375 783.847656 447.503906 783.847656 C 449.28125 783.550781 451.058594 783.402344 452.984375 783.105469 C 454.464844 782.808594 455.5 781.476562 455.203125 779.996094 C 455.054688 778.367188 453.574219 777.332031 452.09375 777.628906 Z M 452.09375 777.628906 " fill-opacity="1" fill-rule="nonzero"/><path fill="#5e17eb" d="M 704.230469 394.609375 C 703.789062 393.128906 702.308594 392.242188 700.828125 392.6875 C 699.347656 393.128906 698.457031 394.609375 698.902344 396.089844 C 699.347656 397.71875 699.789062 399.496094 700.234375 401.273438 C 700.53125 402.457031 701.714844 403.34375 702.898438 403.34375 C 703.195312 403.34375 703.34375 403.34375 703.640625 403.199219 C 705.121094 402.753906 706.007812 401.273438 705.5625 399.941406 C 705.121094 398.164062 704.675781 396.386719 704.230469 394.609375 Z M 704.230469 394.609375 " fill-opacity="1" fill-rule="nonzero"/><path fill="#5e17eb" d="M 697.421875 373.585938 C 696.828125 371.808594 696.238281 370.179688 695.496094 368.40625 C 694.90625 366.925781 693.425781 366.332031 691.945312 366.777344 C 690.460938 367.367188 689.871094 368.847656 690.316406 370.328125 C 691.203125 371.957031 691.796875 373.734375 692.386719 375.363281 C 692.832031 376.546875 693.867188 377.140625 694.90625 377.140625 C 695.199219 377.140625 695.496094 377.140625 695.792969 376.992188 C 697.273438 376.546875 698.011719 374.917969 697.421875 373.585938 Z M 697.421875 373.585938 " fill-opacity="1" fill-rule="nonzero"/><path fill="#5e17eb" d="M 658.039062 304.890625 C 658.632812 304.890625 659.074219 304.742188 659.519531 304.445312 C 660.703125 303.558594 661 301.929688 660.257812 300.597656 C 659.222656 299.113281 658.1875 297.632812 657.152344 296.152344 C 656.261719 294.96875 654.632812 294.671875 653.300781 295.5625 C 652.117188 296.449219 651.820312 298.078125 652.707031 299.410156 C 653.746094 300.742188 654.78125 302.222656 655.816406 303.703125 C 656.410156 304.445312 657.152344 304.890625 658.039062 304.890625 Z M 658.039062 304.890625 " fill-opacity="1" fill-rule="nonzero"/><path fill="#5e17eb" d="M 674.917969 323.839844 C 674.027344 322.210938 673.140625 320.730469 672.105469 319.101562 C 671.363281 317.769531 669.734375 317.324219 668.402344 318.214844 C 667.070312 318.953125 666.625 320.582031 667.515625 321.914062 C 668.402344 323.394531 669.292969 324.875 670.179688 326.503906 C 670.625 327.394531 671.660156 327.835938 672.546875 327.835938 C 672.992188 327.835938 673.4375 327.691406 673.878906 327.542969 C 675.214844 326.800781 675.65625 325.171875 674.917969 323.839844 Z M 674.917969 323.839844 " fill-opacity="1" fill-rule="nonzero"/><path fill="#5e17eb" d="M 634.941406 683.316406 C 635.683594 683.316406 636.421875 683.019531 637.015625 682.429688 C 638.199219 681.097656 639.382812 679.617188 640.570312 678.28125 C 641.605469 677.097656 641.457031 675.46875 640.273438 674.433594 C 639.089844 673.398438 637.3125 673.546875 636.421875 674.730469 C 635.238281 676.0625 634.054688 677.394531 632.871094 678.726562 C 631.832031 679.910156 631.980469 681.539062 633.164062 682.578125 C 633.757812 683.019531 634.351562 683.316406 634.941406 683.316406 Z M 634.941406 683.316406 " fill-opacity="1" fill-rule="nonzero"/><path fill="#5e17eb" d="M 699.347656 565.019531 C 699.640625 565.019531 699.789062 565.167969 700.085938 565.167969 C 701.269531 565.167969 702.308594 564.429688 702.75 563.246094 C 703.195312 561.46875 703.789062 559.691406 704.230469 557.914062 C 704.675781 556.433594 703.789062 554.953125 702.308594 554.507812 C 700.828125 554.066406 699.347656 554.953125 698.902344 556.433594 C 698.457031 558.210938 698.011719 559.839844 697.421875 561.617188 C 696.976562 563.097656 697.867188 564.578125 699.347656 565.019531 Z M 699.347656 565.019531 " fill-opacity="1" fill-rule="nonzero"/><path fill="#5e17eb" d="M 425.296875 780.589844 C 423.519531 780.738281 421.746094 780.882812 419.96875 780.882812 C 418.488281 780.882812 417.300781 782.21875 417.449219 783.699219 C 417.449219 785.179688 418.78125 786.363281 420.117188 786.363281 L 420.261719 786.363281 C 422.039062 786.214844 423.964844 786.214844 425.742188 786.066406 C 427.222656 785.917969 428.40625 784.734375 428.257812 783.105469 C 428.109375 781.476562 426.925781 780.441406 425.296875 780.589844 Z M 425.296875 780.589844 " fill-opacity="1" fill-rule="nonzero"/><path fill="#5e17eb" d="M 694.3125 580.566406 C 692.980469 579.976562 691.351562 580.714844 690.757812 582.195312 C 690.167969 583.824219 689.425781 585.601562 688.835938 587.230469 C 688.242188 588.5625 688.980469 590.191406 690.316406 590.78125 C 690.609375 590.929688 690.90625 590.929688 691.351562 590.929688 C 692.386719 590.929688 693.425781 590.339844 693.867188 589.152344 C 694.609375 587.378906 695.199219 585.75 695.792969 583.972656 C 696.386719 582.640625 695.644531 581.011719 694.3125 580.566406 Z M 694.3125 580.566406 " fill-opacity="1" fill-rule="nonzero"/><path fill="#5e17eb" d="M 665.738281 639.195312 C 666.183594 639.492188 666.625 639.640625 667.21875 639.640625 C 668.105469 639.640625 668.996094 639.195312 669.585938 638.308594 C 670.476562 636.679688 671.511719 635.199219 672.398438 633.570312 C 673.140625 632.238281 672.695312 630.609375 671.363281 629.867188 C 670.03125 629.128906 668.402344 629.574219 667.664062 630.90625 C 666.773438 632.386719 665.886719 634.015625 664.847656 635.496094 C 664.109375 636.828125 664.40625 638.457031 665.738281 639.195312 Z M 665.738281 639.195312 " fill-opacity="1" fill-rule="nonzero"/><path fill="#5e17eb" d="M 129.632812 613.285156 C 128.300781 614.027344 127.707031 615.65625 128.449219 616.988281 C 129.335938 618.617188 130.078125 620.246094 130.964844 621.875 C 131.410156 622.761719 132.445312 623.355469 133.335938 623.355469 C 133.777344 623.355469 134.222656 623.207031 134.667969 623.058594 C 136 622.316406 136.445312 620.691406 135.851562 619.355469 C 134.964844 617.730469 134.074219 616.101562 133.335938 614.472656 C 132.59375 613.140625 130.964844 612.546875 129.632812 613.285156 Z M 129.632812 613.285156 " fill-opacity="1" fill-rule="nonzero"/><path fill="#5e17eb" d="M 597.929688 712.335938 C 596.597656 713.519531 595.117188 714.554688 593.785156 715.742188 C 592.597656 716.628906 592.449219 718.40625 593.339844 719.589844 C 593.929688 720.332031 594.671875 720.625 595.410156 720.625 C 596.003906 720.625 596.597656 720.476562 597.039062 720.035156 C 598.519531 718.851562 599.855469 717.8125 601.335938 716.628906 C 602.519531 715.742188 602.667969 713.964844 601.777344 712.78125 C 600.742188 711.59375 599.113281 711.445312 597.929688 712.335938 Z M 597.929688 712.335938 " fill-opacity="1" fill-rule="nonzero"/><path fill="#5e17eb" d="M 529.378906 754.679688 C 527.75 755.417969 526.121094 756.160156 524.492188 756.898438 C 523.160156 757.492188 522.421875 759.121094 523.011719 760.453125 C 523.457031 761.488281 524.492188 762.082031 525.53125 762.082031 C 525.828125 762.082031 526.269531 762.082031 526.566406 761.933594 C 528.195312 761.195312 529.972656 760.453125 531.601562 759.710938 C 532.933594 759.121094 533.523438 757.492188 532.933594 756.160156 C 532.339844 754.679688 530.710938 754.085938 529.378906 754.679688 Z M 529.378906 754.679688 " fill-opacity="1" fill-rule="nonzero"/><path fill="#5e17eb" d="M 653.003906 653.410156 C 651.96875 654.890625 650.933594 656.371094 649.894531 657.703125 C 649.007812 658.886719 649.304688 660.664062 650.488281 661.550781 C 650.933594 661.847656 651.523438 662.144531 652.117188 662.144531 C 653.003906 662.144531 653.746094 661.699219 654.335938 661.109375 C 655.375 659.628906 656.558594 658.148438 657.59375 656.667969 C 658.335938 655.335938 658.039062 653.707031 656.855469 652.816406 C 655.671875 651.929688 653.894531 652.226562 653.003906 653.410156 Z M 653.003906 653.410156 " fill-opacity="1" fill-rule="nonzero"/><path fill="#5e17eb" d="M 553.511719 742.6875 C 551.882812 743.574219 550.402344 744.464844 548.773438 745.203125 C 547.441406 745.945312 547 747.574219 547.589844 748.90625 C 548.035156 749.792969 549.070312 750.386719 549.960938 750.386719 C 550.402344 750.386719 550.847656 750.238281 551.292969 750.089844 C 552.921875 749.199219 554.550781 748.3125 556.03125 747.425781 C 557.363281 746.683594 557.804688 745.054688 557.066406 743.722656 C 556.472656 742.390625 554.695312 741.945312 553.511719 742.6875 Z M 553.511719 742.6875 " fill-opacity="1" fill-rule="nonzero"/><path fill="#5e17eb" d="M 710.152344 421.261719 C 709.859375 419.78125 708.527344 418.742188 707.042969 419.039062 C 705.5625 419.335938 704.527344 420.816406 704.824219 422.296875 C 705.121094 424.074219 705.417969 425.851562 705.710938 427.625 C 705.859375 428.960938 707.042969 429.847656 708.378906 429.847656 C 708.527344 429.847656 708.671875 429.847656 708.820312 429.847656 C 710.300781 429.550781 711.339844 428.21875 711.042969 426.738281 C 710.746094 424.960938 710.449219 423.183594 710.152344 421.261719 Z M 710.152344 421.261719 " fill-opacity="1" fill-rule="nonzero"/><path fill="#5e17eb" d="M 576.3125 728.472656 C 574.832031 729.507812 573.351562 730.546875 571.871094 731.433594 C 570.6875 732.324219 570.242188 733.953125 571.132812 735.136719 C 571.722656 735.875 572.464844 736.320312 573.351562 736.320312 C 573.796875 736.320312 574.386719 736.171875 574.832031 735.875 C 576.3125 734.839844 577.941406 733.804688 579.421875 732.765625 C 580.605469 731.878906 581.050781 730.25 580.164062 728.917969 C 579.273438 727.882812 577.644531 727.585938 576.3125 728.472656 Z M 576.3125 728.472656 " fill-opacity="1" fill-rule="nonzero"/><path fill="#5e17eb" d="M 708.378906 448.945312 C 708.527344 450.722656 708.671875 452.5 708.820312 454.277344 C 708.96875 455.757812 710.152344 456.792969 711.488281 456.792969 L 711.632812 456.792969 C 713.113281 456.644531 714.300781 455.3125 714.152344 453.832031 C 714.003906 452.054688 713.855469 450.128906 713.707031 448.355469 C 713.558594 446.875 712.226562 445.6875 710.746094 445.835938 C 709.265625 446.132812 708.230469 447.464844 708.378906 448.945312 Z M 708.378906 448.945312 " fill-opacity="1" fill-rule="nonzero"/><path fill="#5e17eb" d="M 339.574219 774.222656 C 338.09375 773.925781 336.613281 774.8125 336.316406 776.296875 C 336.019531 777.777344 336.910156 779.257812 338.390625 779.550781 C 340.167969 779.996094 341.941406 780.292969 343.71875 780.738281 C 343.867188 780.738281 344.015625 780.738281 344.3125 780.738281 C 345.644531 780.738281 346.679688 779.847656 346.976562 778.515625 C 347.273438 777.035156 346.382812 775.554688 344.902344 775.257812 C 343.128906 774.960938 341.351562 774.519531 339.574219 774.222656 Z M 339.574219 774.222656 " fill-opacity="1" fill-rule="nonzero"/><path fill="#5e17eb" d="M 240.527344 733.0625 C 239.191406 732.324219 237.566406 732.617188 236.824219 733.953125 C 236.085938 735.285156 236.378906 736.914062 237.710938 737.652344 C 239.191406 738.6875 240.820312 739.578125 242.300781 740.613281 C 242.746094 740.910156 243.191406 741.058594 243.78125 741.058594 C 244.671875 741.058594 245.558594 740.613281 246.152344 739.726562 C 246.742188 738.394531 246.300781 736.765625 245.117188 735.875 C 243.636719 734.988281 242.007812 733.953125 240.527344 733.0625 Z M 240.527344 733.0625 " fill-opacity="1" fill-rule="nonzero"/><path fill="#5e17eb" d="M 194.035156 700.195312 C 193 701.230469 193.148438 703.007812 194.183594 704.042969 C 195.515625 705.230469 196.851562 706.5625 198.183594 707.746094 C 198.773438 708.191406 199.367188 708.484375 199.957031 708.484375 C 200.699219 708.484375 201.4375 708.191406 202.03125 707.597656 C 203.066406 706.414062 202.921875 704.785156 201.882812 703.75 C 200.550781 702.414062 199.21875 701.230469 197.886719 700.046875 C 196.851562 699.011719 195.074219 699.160156 194.035156 700.195312 Z M 194.035156 700.195312 " fill-opacity="1" fill-rule="nonzero"/><path fill="#5e17eb" d="M 218.464844 717.515625 C 217.28125 716.628906 215.503906 716.777344 214.617188 717.960938 C 213.726562 719.144531 213.875 720.921875 215.058594 721.8125 C 216.539062 722.996094 218.023438 724.03125 219.503906 725.066406 C 219.945312 725.363281 220.539062 725.660156 221.128906 725.660156 C 222.019531 725.660156 222.757812 725.214844 223.351562 724.625 C 224.238281 723.292969 223.945312 721.664062 222.757812 720.773438 C 221.277344 719.738281 219.945312 718.554688 218.464844 717.515625 Z M 218.464844 717.515625 " fill-opacity="1" fill-rule="nonzero"/><path fill="#5e17eb" d="M 263.917969 746.535156 C 262.585938 745.796875 260.957031 746.386719 260.21875 747.71875 C 259.476562 749.054688 260.070312 750.679688 261.402344 751.421875 C 263.03125 752.308594 264.660156 753.050781 266.289062 753.9375 C 266.730469 754.085938 267.027344 754.234375 267.472656 754.234375 C 268.507812 754.234375 269.394531 753.644531 269.839844 752.753906 C 270.433594 751.421875 269.988281 749.792969 268.65625 749.054688 C 267.027344 748.3125 265.398438 747.425781 263.917969 746.535156 Z M 263.917969 746.535156 " fill-opacity="1" fill-rule="nonzero"/><path fill="#5e17eb" d="M 706.15625 538.816406 C 706.304688 538.816406 706.453125 538.816406 706.75 538.816406 C 708.082031 538.816406 709.117188 537.925781 709.414062 536.59375 C 709.710938 534.816406 710.152344 533.042969 710.449219 531.265625 C 710.449219 529.636719 709.5625 528.304688 708.082031 528.007812 C 706.601562 527.710938 705.121094 528.746094 704.972656 530.226562 C 704.675781 532.003906 704.378906 533.78125 703.9375 535.558594 C 703.640625 537.039062 704.675781 538.519531 706.15625 538.816406 Z M 706.15625 538.816406 " fill-opacity="1" fill-rule="nonzero"/><path fill="#5e17eb" d="M 142.808594 636.976562 C 141.476562 637.714844 141.179688 639.492188 141.921875 640.675781 C 142.957031 642.15625 143.847656 643.785156 144.882812 645.265625 C 145.476562 646.007812 146.214844 646.449219 147.101562 646.449219 C 147.546875 646.449219 148.140625 646.304688 148.585938 646.007812 C 149.917969 645.117188 150.210938 643.488281 149.324219 642.304688 C 148.4375 640.972656 147.546875 639.492188 146.511719 637.863281 C 145.769531 636.53125 143.996094 636.234375 142.808594 636.976562 Z M 142.808594 636.976562 " fill-opacity="1" fill-rule="nonzero"/><path fill="#5e17eb" d="M 560.324219 208.210938 C 558.695312 207.320312 557.214844 206.433594 555.585938 205.542969 C 554.253906 204.804688 552.625 205.25 551.882812 206.582031 C 551.144531 207.914062 551.585938 209.542969 552.921875 210.28125 C 554.550781 211.171875 556.03125 212.058594 557.65625 212.949219 C 558.101562 213.242188 558.546875 213.242188 558.992188 213.242188 C 559.878906 213.242188 560.914062 212.800781 561.359375 211.910156 C 562.101562 210.578125 561.65625 208.949219 560.324219 208.210938 Z M 560.324219 208.210938 " fill-opacity="1" fill-rule="nonzero"/><path fill="#5e17eb" d="M 157.910156 659.480469 C 156.726562 660.367188 156.429688 662.144531 157.320312 663.328125 C 158.355469 664.808594 159.539062 666.289062 160.722656 667.621094 C 161.316406 668.363281 162.058594 668.660156 162.796875 668.660156 C 163.390625 668.660156 163.980469 668.511719 164.425781 668.066406 C 165.609375 667.179688 165.757812 665.402344 164.871094 664.21875 C 163.980469 663.035156 162.945312 661.554688 161.761719 660.070312 C 160.871094 658.886719 159.097656 658.589844 157.910156 659.480469 Z M 157.910156 659.480469 " fill-opacity="1" fill-rule="nonzero"/><path fill="#5e17eb" d="M 175.085938 680.652344 C 173.902344 681.6875 173.902344 683.316406 174.9375 684.5 C 176.121094 685.832031 177.453125 687.167969 178.640625 688.5 C 179.230469 689.089844 179.972656 689.386719 180.5625 689.386719 C 181.304688 689.386719 181.894531 689.089844 182.488281 688.648438 C 183.671875 687.609375 183.671875 685.980469 182.636719 684.796875 C 181.453125 683.464844 180.121094 682.132812 178.933594 680.800781 C 177.898438 679.617188 176.269531 679.617188 175.085938 680.652344 Z M 175.085938 680.652344 " fill-opacity="1" fill-rule="nonzero"/><path fill="#5e17eb" d="M 288.199219 757.9375 C 286.867188 757.34375 285.238281 758.085938 284.644531 759.417969 C 284.054688 760.75 284.792969 762.378906 286.125 762.96875 C 287.753906 763.710938 289.53125 764.300781 291.160156 765.042969 C 291.457031 765.191406 291.753906 765.191406 292.195312 765.191406 C 293.234375 765.191406 294.269531 764.597656 294.714844 763.414062 C 295.304688 762.230469 294.714844 760.601562 293.234375 760.007812 C 291.605469 759.417969 289.828125 758.675781 288.199219 757.9375 Z M 288.199219 757.9375 " fill-opacity="1" fill-rule="nonzero"/><path fill="#5e17eb" d="M 639.53125 282.238281 C 640.125 282.828125 640.863281 283.273438 641.605469 283.273438 C 642.195312 283.273438 642.789062 283.125 643.382812 282.679688 C 644.566406 281.792969 644.714844 280.015625 643.675781 278.832031 C 642.492188 277.351562 641.308594 276.019531 640.125 274.6875 C 639.089844 273.5 637.460938 273.355469 636.273438 274.390625 C 635.089844 275.425781 634.941406 277.054688 635.980469 278.238281 C 637.3125 279.425781 638.347656 280.757812 639.53125 282.238281 Z M 639.53125 282.238281 " fill-opacity="1" fill-rule="nonzero"/><path fill="#5e17eb" d="M 617.917969 694.421875 C 616.582031 695.605469 615.398438 696.9375 614.066406 698.121094 C 613.03125 699.160156 612.882812 700.789062 613.917969 701.972656 C 614.511719 702.5625 615.101562 702.859375 615.84375 702.859375 C 616.582031 702.859375 617.175781 702.5625 617.769531 702.121094 C 619.101562 700.933594 620.433594 699.601562 621.765625 698.269531 C 622.800781 697.234375 622.800781 695.457031 621.765625 694.421875 C 620.730469 693.382812 618.953125 693.382812 617.917969 694.421875 Z M 617.917969 694.421875 " fill-opacity="1" fill-rule="nonzero"/><path fill="#5e17eb" d="M 713.261719 509.5 C 713.410156 507.722656 713.558594 505.800781 713.855469 504.023438 C 714.003906 502.394531 712.820312 501.210938 711.339844 501.0625 C 709.859375 500.914062 708.527344 502.097656 708.378906 503.578125 C 708.230469 505.355469 708.082031 507.132812 707.933594 508.910156 C 707.785156 510.390625 708.820312 511.722656 710.300781 511.871094 C 710.449219 511.871094 710.449219 511.871094 710.597656 511.871094 C 711.929688 511.871094 713.113281 510.832031 713.261719 509.5 Z M 713.261719 509.5 " fill-opacity="1" fill-rule="nonzero"/><path fill="#5e17eb" d="M 603.40625 244.484375 C 604.148438 244.484375 604.886719 244.1875 605.480469 243.445312 C 606.515625 242.261719 606.367188 240.632812 605.183594 239.597656 C 603.851562 238.414062 602.371094 237.226562 600.890625 236.042969 C 599.707031 235.15625 598.078125 235.304688 597.039062 236.488281 C 596.003906 237.671875 596.300781 239.300781 597.484375 240.335938 C 598.964844 241.671875 600.296875 242.855469 601.628906 243.890625 C 602.074219 244.335938 602.816406 244.484375 603.40625 244.484375 Z M 603.40625 244.484375 " fill-opacity="1" fill-rule="nonzero"/><path fill="#5e17eb" d="M 683.949219 605.734375 C 682.617188 605.144531 680.988281 605.734375 680.394531 607.070312 C 679.65625 608.695312 678.765625 610.324219 678.027344 611.953125 C 677.285156 613.285156 677.878906 614.914062 679.210938 615.65625 C 679.65625 615.804688 679.949219 615.953125 680.394531 615.953125 C 681.429688 615.953125 682.320312 615.359375 682.765625 614.472656 C 683.652344 612.84375 684.394531 611.214844 685.132812 609.585938 C 685.875 607.957031 685.28125 606.328125 683.949219 605.734375 Z M 683.949219 605.734375 " fill-opacity="1" fill-rule="nonzero"/><path fill="#5e17eb" d="M 580.308594 227.457031 C 580.753906 227.753906 581.347656 227.902344 581.9375 227.902344 C 582.828125 227.902344 583.566406 227.457031 584.160156 226.714844 C 585.046875 225.53125 584.753906 223.753906 583.566406 222.867188 C 582.085938 221.832031 580.605469 220.792969 578.976562 219.757812 C 577.792969 218.871094 576.015625 219.164062 575.128906 220.5 C 574.386719 221.832031 574.683594 223.609375 575.867188 224.347656 C 577.347656 225.382812 578.828125 226.421875 580.308594 227.457031 Z M 580.308594 227.457031 " fill-opacity="1" fill-rule="nonzero"/><path fill="#5e17eb" d="M 313.515625 767.261719 C 312.035156 766.820312 310.554688 767.558594 310.109375 769.039062 C 309.667969 770.519531 310.40625 772 311.886719 772.445312 C 313.664062 773.039062 315.441406 773.480469 317.070312 774.074219 C 317.367188 774.222656 317.515625 774.222656 317.808594 774.222656 C 318.996094 774.222656 320.03125 773.480469 320.476562 772.296875 C 321.066406 770.816406 320.179688 769.1875 318.699219 768.890625 C 316.921875 768.449219 315.292969 767.855469 313.515625 767.261719 Z M 313.515625 767.261719 " fill-opacity="1" fill-rule="nonzero"/><path fill="#5e17eb" d="M 366.222656 778.8125 C 364.742188 778.664062 363.410156 779.699219 363.113281 781.179688 C 362.964844 782.660156 364.003906 783.992188 365.484375 784.289062 C 367.261719 784.585938 369.183594 784.734375 370.960938 784.882812 C 371.109375 784.882812 371.109375 784.882812 371.257812 784.882812 C 372.589844 784.882812 373.773438 783.847656 373.921875 782.511719 C 374.070312 780.882812 373.035156 779.550781 371.554688 779.402344 C 369.777344 779.257812 368 778.960938 366.222656 778.8125 Z M 366.222656 778.8125 " fill-opacity="1" fill-rule="nonzero"/><path fill="#5e17eb" d="M 393.023438 781.03125 C 391.542969 781.03125 390.207031 782.21875 390.207031 783.699219 C 390.207031 785.179688 391.394531 786.511719 392.875 786.511719 C 394.648438 786.511719 396.574219 786.660156 398.351562 786.660156 C 399.832031 786.660156 401.015625 785.472656 401.015625 783.992188 C 401.164062 782.363281 399.980469 781.179688 398.351562 781.179688 C 396.574219 781.179688 394.796875 781.03125 393.023438 781.03125 Z M 393.023438 781.03125 " fill-opacity="1" fill-rule="nonzero"/><path fill="#5e17eb" d="M 603.109375 674.433594 C 552.328125 725.363281 482.296875 756.75 405.015625 756.75 L 405.015625 756.898438 C 327.730469 756.75 257.699219 725.363281 207.066406 674.582031 C 156.136719 623.945312 124.746094 553.769531 124.746094 476.484375 C 124.746094 399.199219 156.136719 329.171875 206.917969 278.535156 C 257.699219 227.605469 327.730469 196.21875 405.015625 196.21875 L 405.015625 184.816406 C 324.621094 184.816406 251.628906 217.539062 198.921875 270.394531 L 198.773438 270.246094 C 146.066406 323.25 113.347656 396.089844 113.347656 476.484375 C 113.347656 556.878906 146.066406 629.867188 198.921875 682.578125 L 198.773438 682.722656 C 251.628906 735.578125 324.472656 768.300781 405.015625 768.300781 L 405.015625 768.152344 C 485.40625 768.152344 558.398438 735.433594 611.253906 682.578125 Z M 603.109375 674.433594 " fill-opacity="1" fill-rule="nonzero"/><path fill="#5e17eb" d="M 555.882812 265.359375 C 553.957031 267.875 554.402344 271.578125 557.066406 273.5 C 566.6875 280.757812 584.308594 297.339844 584.308594 297.339844 C 591.710938 304.890625 598.816406 312.734375 605.183594 321.027344 C 606.367188 322.507812 608.144531 323.25 609.773438 323.25 C 610.957031 323.25 612.289062 322.804688 613.328125 322.0625 C 615.84375 320.140625 616.289062 316.4375 614.363281 313.921875 C 607.550781 305.183594 592.304688 289.195312 592.304688 289.195312 C 583.417969 280.164062 573.945312 271.875 564.023438 264.175781 C 561.507812 262.25 557.804688 262.695312 555.882812 265.359375 Z M 555.882812 265.359375 " fill-opacity="1" fill-rule="nonzero"/><path fill="#5e17eb" d="M 588.453125 666.585938 C 589.488281 665.550781 590.675781 664.367188 591.710938 663.328125 L 583.566406 655.1875 C 582.53125 656.222656 581.496094 657.257812 580.457031 658.296875 C 578.238281 660.515625 578.089844 664.070312 580.308594 666.4375 C 581.496094 667.621094 582.976562 668.214844 584.457031 668.214844 C 585.9375 668.214844 587.417969 667.621094 588.453125 666.585938 Z M 588.453125 666.585938 " fill-opacity="1" fill-rule="nonzero"/><path fill="#5e17eb" d="M 630.5 603.070312 C 627.6875 601.441406 624.132812 602.332031 622.507812 605.144531 C 611.699219 623.355469 598.519531 640.085938 583.566406 655.039062 L 591.710938 663.179688 C 607.550781 647.636719 621.171875 630.164062 632.574219 611.066406 C 634.203125 608.253906 633.3125 604.699219 630.5 603.070312 Z M 630.5 603.070312 " fill-opacity="1" fill-rule="nonzero"/><path fill="#5e17eb" d="M 661.886719 450.128906 C 662.183594 450.128906 662.332031 450.128906 662.628906 450.128906 C 665.738281 449.6875 668.105469 446.875 667.664062 443.617188 C 664.847656 420.074219 658.777344 396.980469 649.746094 375.066406 C 648.5625 372.105469 645.15625 370.625 642.195312 371.957031 C 639.234375 373.140625 637.753906 376.546875 639.089844 379.507812 C 647.675781 400.53125 653.449219 422.59375 656.113281 445.097656 C 656.410156 448.058594 658.925781 450.128906 661.886719 450.128906 Z M 661.886719 450.128906 " fill-opacity="1" fill-rule="nonzero"/><path fill="#5e17eb" d="M 395.09375 740.761719 L 395.242188 740.761719 C 398.351562 740.761719 400.867188 738.246094 401.015625 735.136719 C 401.164062 731.878906 398.648438 729.214844 395.390625 729.066406 C 372.738281 728.175781 350.234375 724.476562 328.765625 717.664062 C 325.65625 716.777344 322.398438 718.40625 321.511719 721.515625 C 320.625 724.625 322.25 727.882812 325.359375 728.769531 C 347.863281 735.875 371.40625 739.875 395.09375 740.761719 Z M 395.09375 740.761719 " fill-opacity="1" fill-rule="nonzero"/><path fill="#5e17eb" d="M 458.460938 729.363281 C 459.054688 732.027344 461.421875 733.804688 464.085938 733.804688 C 464.53125 733.804688 464.976562 733.804688 465.421875 733.65625 C 488.515625 728.175781 510.726562 719.738281 531.453125 708.339844 C 534.265625 706.855469 535.300781 703.304688 533.820312 700.492188 C 532.339844 697.824219 528.789062 696.789062 525.972656 698.269531 C 506.136719 709.078125 484.816406 717.222656 462.753906 722.402344 C 459.644531 723.144531 457.722656 726.253906 458.460938 729.363281 Z M 458.460938 729.363281 " fill-opacity="1" fill-rule="nonzero"/><path fill="#5e17eb" d="M 217.875 663.773438 C 231.050781 676.800781 245.558594 688.5 261.253906 698.566406 C 262.289062 699.160156 263.324219 699.453125 264.363281 699.453125 C 266.289062 699.453125 268.0625 698.566406 269.25 696.789062 C 271.023438 694.125 270.136719 690.570312 267.472656 688.792969 C 252.519531 679.171875 238.75 667.917969 226.015625 655.484375 C 222.609375 651.929688 219.207031 648.375 215.949219 644.96875 C 213.875 642.601562 210.175781 642.453125 207.804688 644.527344 C 205.4375 646.597656 205.289062 650.300781 207.363281 652.667969 C 210.765625 656.519531 214.320312 660.070312 217.875 663.773438 Z M 217.875 663.773438 " fill-opacity="1" fill-rule="nonzero"/><path fill="#5e17eb" d="M 427.222656 217.683594 C 426.925781 220.792969 429.148438 223.609375 432.402344 224.050781 C 454.910156 226.570312 477.117188 232.046875 498.140625 240.335938 C 498.878906 240.632812 499.621094 240.78125 500.214844 240.78125 C 502.582031 240.78125 504.65625 239.449219 505.542969 237.082031 C 506.726562 234.121094 505.246094 230.714844 502.285156 229.53125 C 480.226562 220.792969 457.128906 215.019531 433.589844 212.503906 C 430.480469 212.207031 427.519531 214.429688 427.222656 217.683594 Z M 427.222656 217.683594 " fill-opacity="1" fill-rule="nonzero"/><path fill="#5e17eb" d="M 643.972656 476.632812 C 643.972656 410.601562 617.175781 350.933594 574.09375 307.703125 C 530.859375 264.46875 471.046875 237.671875 405.164062 237.671875 C 339.277344 237.671875 279.613281 264.46875 236.378906 307.703125 C 193.148438 350.933594 166.351562 410.601562 166.351562 476.484375 C 166.351562 542.367188 193.148438 601.886719 236.230469 645.117188 C 279.464844 688.351562 339.128906 715.296875 405.015625 715.296875 L 405.015625 703.15625 C 342.535156 703.15625 285.832031 677.542969 244.820312 636.53125 C 203.660156 595.519531 178.34375 538.964844 178.34375 476.335938 C 178.34375 413.859375 203.808594 357.152344 244.820312 316.140625 C 285.832031 275.277344 342.535156 249.8125 405.015625 249.8125 C 467.492188 249.8125 524.347656 275.277344 565.355469 316.289062 C 606.367188 357.300781 631.832031 414.003906 631.832031 476.78125 C 631.832031 539.257812 606.367188 595.667969 565.355469 636.828125 L 573.945312 645.414062 C 617.175781 602.183594 643.972656 542.515625 643.972656 476.632812 Z M 643.972656 476.632812 " fill-opacity="1" fill-rule="nonzero"/><path fill="#5e17eb" d="M 585.492188 381.730469 C 586.527344 381.730469 587.566406 381.433594 588.601562 380.988281 C 591.5625 379.359375 592.746094 375.511719 590.96875 372.402344 C 582.53125 357.300781 572.167969 343.382812 560.324219 330.800781 C 557.953125 328.28125 553.957031 328.132812 551.441406 330.503906 C 548.921875 332.871094 548.773438 336.722656 551.144531 339.238281 C 562.246094 351.082031 572.019531 364.257812 580.015625 378.472656 C 581.199219 380.546875 583.273438 381.730469 585.492188 381.730469 Z M 585.492188 381.730469 " fill-opacity="1" fill-rule="nonzero"/><path fill="#5e17eb" d="M 611.402344 468.339844 C 611.550781 468.339844 611.699219 468.339844 611.847656 468.339844 C 615.25 468.046875 617.917969 465.085938 617.621094 461.679688 C 616.4375 444.503906 613.03125 427.476562 607.699219 410.894531 C 606.664062 407.640625 603.109375 405.714844 599.707031 406.898438 C 596.449219 407.933594 594.523438 411.488281 595.707031 414.894531 C 600.890625 430.441406 604.148438 446.429688 605.183594 462.566406 C 605.480469 465.824219 608.144531 468.339844 611.402344 468.339844 Z M 611.402344 468.339844 " fill-opacity="1" fill-rule="nonzero"/><path fill="#5e17eb" d="M 248.816406 341.457031 C 246.152344 339.238281 242.15625 339.683594 239.933594 342.347656 C 229.125 355.820312 219.796875 370.476562 212.542969 386.171875 C 210.914062 389.429688 212.394531 393.128906 215.503906 394.609375 C 216.394531 395.054688 217.28125 395.203125 218.167969 395.203125 C 220.539062 395.203125 222.757812 393.871094 223.796875 391.648438 C 230.753906 376.84375 239.339844 363.074219 249.707031 350.34375 C 251.925781 347.675781 251.480469 343.679688 248.816406 341.457031 Z M 248.816406 341.457031 " fill-opacity="1" fill-rule="nonzero"/><path fill="#5e17eb" d="M 202.773438 542.664062 C 207.65625 557.617188 214.171875 572.128906 222.019531 585.453125 C 223.203125 587.378906 225.277344 588.5625 227.496094 588.5625 C 228.535156 588.5625 229.71875 588.265625 230.753906 587.671875 C 233.714844 585.898438 234.75 582.046875 232.976562 579.085938 C 225.425781 566.355469 219.207031 552.734375 214.617188 538.667969 C 214.171875 537.1875 213.726562 535.855469 213.285156 534.375 C 212.246094 531.117188 208.84375 529.191406 205.4375 530.226562 C 202.179688 531.265625 200.253906 534.671875 201.292969 538.074219 C 201.734375 539.554688 202.179688 541.035156 202.773438 542.664062 Z M 202.773438 542.664062 " fill-opacity="1" fill-rule="nonzero"/><path fill="#5e17eb" d="M 429 271.28125 C 429.296875 267.875 426.777344 264.765625 423.226562 264.46875 C 417.15625 264.027344 411.085938 263.730469 405.015625 263.730469 C 393.761719 263.730469 382.65625 264.617188 371.554688 266.394531 C 368.148438 266.988281 365.78125 270.246094 366.371094 273.648438 C 366.816406 276.757812 369.480469 278.980469 372.589844 278.980469 C 372.886719 278.980469 373.332031 278.980469 373.625 278.832031 C 383.992188 277.203125 394.503906 276.316406 405.015625 276.316406 C 410.789062 276.316406 416.5625 276.464844 422.1875 277.054688 C 425.742188 277.351562 428.703125 274.6875 429 271.28125 Z M 429 271.28125 " fill-opacity="1" fill-rule="nonzero"/><path fill="#ffff" d="M 513.6875 308.148438 C 514.722656 308.886719 515.90625 309.183594 517.089844 309.183594 C 519.164062 309.183594 521.238281 308.148438 522.421875 306.222656 C 524.347656 303.261719 523.457031 299.410156 520.496094 297.488281 C 505.988281 288.160156 490.292969 280.609375 474.007812 274.980469 C 470.75 273.796875 467.195312 275.574219 466.011719 278.832031 C 464.828125 282.238281 466.605469 285.9375 469.863281 286.976562 C 485.257812 292.15625 500.066406 299.410156 513.6875 308.148438 Z M 513.6875 308.148438 " fill-opacity="1" fill-rule="nonzero"/><path fill="#5e17eb" d="M 321.957031 280.757812 C 305.964844 287.566406 290.863281 296.152344 277.09375 306.519531 C 274.28125 308.589844 273.839844 312.589844 275.910156 315.253906 C 277.09375 316.882812 279.019531 317.769531 280.945312 317.769531 C 282.277344 317.769531 283.609375 317.324219 284.792969 316.4375 C 297.824219 306.664062 311.886719 298.523438 326.988281 292.15625 C 330.246094 290.824219 331.726562 287.121094 330.394531 283.867188 C 329.0625 280.609375 325.066406 279.425781 321.957031 280.757812 Z M 321.957031 280.757812 " fill-opacity="1" fill-rule="nonzero"/><path fill="#5e17eb" d="M 208.695312 437.84375 C 209.285156 434.4375 207.066406 431.179688 203.660156 430.441406 C 200.253906 429.699219 196.996094 431.921875 196.257812 435.324219 C 193.59375 448.796875 192.261719 462.566406 192.261719 476.335938 L 192.113281 476.335938 C 192.261719 476.632812 192.261719 476.632812 192.261719 476.632812 C 192.261719 480.039062 192.40625 483.589844 192.554688 486.996094 C 192.703125 490.402344 195.515625 492.917969 198.773438 492.917969 C 198.921875 492.917969 198.921875 492.917969 199.070312 492.917969 C 202.476562 492.769531 205.140625 489.808594 204.992188 486.257812 C 204.84375 483 204.695312 479.742188 204.695312 476.484375 L 204.84375 476.484375 C 204.84375 463.605469 206.175781 450.574219 208.695312 437.84375 Z M 208.695312 437.84375 " fill-opacity="1" fill-rule="nonzero"/></svg>