<svg xmlns="http://www.w3.org/2000/svg" xmlns:xlink="http://www.w3.org/1999/xlink" width="750" zoomAndPan="magnify" viewBox="0 0 562.5 187.499995" height="250" preserveAspectRatio="xMidYMid meet" version="1.0"><defs><g/><clipPath id="40532f5768"><path d="M 268.144531 96.222656 L 300.339844 96.222656 L 300.339844 102.960938 L 268.144531 102.960938 Z M 268.144531 96.222656 " clip-rule="nonzero"/></clipPath><clipPath id="14583b3dc3"><path d="M 8.132812 35 L 153.375 35 L 153.375 159.464844 L 8.132812 159.464844 Z M 8.132812 35 " clip-rule="nonzero"/></clipPath><clipPath id="c609efa6e5"><path d="M 12 18.714844 L 149 18.714844 L 149 156 L 12 156 Z M 12 18.714844 " clip-rule="nonzero"/></clipPath></defs><g clip-path="url(#40532f5768)"><path fill="#ffffff" d="M 299.867188 96.222656 C 299.605469 96.222656 299.394531 96.429688 299.394531 96.691406 C 299.394531 96.699219 299.394531 96.710938 299.394531 96.71875 L 285.683594 96.71875 L 280.382812 102.402344 L 269.078125 102.402344 C 269.035156 102.1875 268.851562 102.019531 268.617188 102.019531 C 268.355469 102.019531 268.144531 102.230469 268.144531 102.488281 C 268.144531 102.75 268.355469 102.957031 268.617188 102.957031 C 268.851562 102.957031 269.042969 102.785156 269.078125 102.558594 L 280.449219 102.558594 L 285.753906 96.875 L 299.4375 96.875 C 299.507812 97.039062 299.675781 97.160156 299.867188 97.160156 C 300.128906 97.160156 300.339844 96.953125 300.339844 96.691406 C 300.339844 96.429688 300.128906 96.222656 299.867188 96.222656 Z M 299.867188 96.222656 " fill-opacity="1" fill-rule="nonzero"/></g><g clip-path="url(#14583b3dc3)"><path fill="#5e17eb" d="M 132.152344 138.101562 C 145.808594 124.441406 153.375 106.261719 153.375 86.902344 L 151.34375 86.902344 C 151.34375 105.703125 144.015625 123.382812 130.707031 136.660156 C 117.402344 149.9375 99.59375 157.339844 80.753906 157.339844 C 61.914062 157.339844 44.164062 150.027344 30.859375 136.71875 C 17.523438 123.414062 10.164062 105.730469 10.164062 86.902344 C 10.164062 68.105469 17.492188 50.394531 30.828125 37.117188 L 29.386719 35.675781 C 15.699219 49.363281 8.132812 67.546875 8.132812 86.902344 C 8.132812 106.261719 15.699219 124.472656 29.414062 138.160156 C 43.132812 151.847656 61.355469 159.367188 80.753906 159.367188 C 100.125 159.367188 118.402344 151.757812 132.121094 138.128906 C 132.121094 138.128906 132.121094 138.128906 132.152344 138.101562 Z M 132.152344 138.101562 " fill-opacity="1" fill-rule="nonzero"/></g><g clip-path="url(#c609efa6e5)"><path fill="#5e17eb" d="M 32.507812 135.074219 C 32.535156 135.105469 32.535156 135.105469 32.535156 135.105469 C 45.429688 147.941406 62.53125 155.019531 80.753906 155.019531 C 98.976562 155.019531 116.109375 147.941406 129 135.074219 C 141.894531 122.210938 148.988281 105.113281 148.988281 86.933594 L 145.457031 86.933594 C 145.457031 104.144531 138.714844 120.359375 126.5 132.578125 C 114.28125 144.769531 98.035156 151.496094 80.753906 151.496094 C 63.472656 151.464844 47.226562 144.769531 35.039062 132.578125 C 22.820312 120.386719 16.050781 104.117188 16.050781 86.902344 C 16.050781 69.660156 22.792969 53.449219 35.007812 41.257812 C 47.226562 29.070312 63.472656 22.34375 80.753906 22.34375 C 98.035156 22.34375 114.28125 29.097656 126.5 41.257812 C 138.714844 53.449219 145.457031 69.660156 145.457031 86.902344 L 148.988281 86.902344 C 148.988281 68.75 141.925781 51.65625 129.03125 38.789062 C 129.03125 38.789062 129.03125 38.789062 129 38.761719 C 129 38.761719 129 38.761719 128.972656 38.730469 C 116.136719 25.925781 98.945312 18.816406 80.753906 18.816406 C 62.53125 18.816406 45.398438 25.894531 32.507812 38.761719 C 19.613281 51.625 12.519531 68.722656 12.519531 86.902344 C 12.519531 105.054688 19.644531 122.210938 32.507812 135.074219 Z M 32.507812 135.074219 " fill-opacity="1" fill-rule="nonzero"/></g><path fill="#5e17eb" d="M 26.707031 59 C 26.914062 59 27.089844 58.882812 27.179688 58.707031 C 27.355469 58.382812 27.503906 58.089844 27.679688 57.765625 C 27.828125 57.5 27.738281 57.179688 27.472656 57.03125 C 27.207031 56.882812 26.882812 56.972656 26.738281 57.238281 C 26.558594 57.558594 26.382812 57.882812 26.207031 58.207031 C 26.058594 58.46875 26.175781 58.792969 26.441406 58.941406 C 26.53125 58.96875 26.621094 59 26.707031 59 Z M 26.707031 59 " fill-opacity="1" fill-rule="nonzero"/><path fill="#5e17eb" d="M 24.382812 63.875 C 24.589844 63.875 24.792969 63.757812 24.882812 63.550781 C 25.03125 63.230469 25.175781 62.90625 25.292969 62.554688 C 25.414062 62.289062 25.292969 61.964844 25.03125 61.847656 C 24.765625 61.730469 24.441406 61.847656 24.324219 62.113281 C 24.175781 62.4375 24.027344 62.789062 23.882812 63.113281 C 23.765625 63.40625 23.882812 63.726562 24.175781 63.847656 C 24.234375 63.875 24.324219 63.875 24.382812 63.875 Z M 24.382812 63.875 " fill-opacity="1" fill-rule="nonzero"/><path fill="#5e17eb" d="M 29.414062 54.328125 C 29.59375 54.328125 29.769531 54.242188 29.855469 54.09375 C 30.0625 53.800781 30.238281 53.507812 30.445312 53.210938 C 30.621094 52.976562 30.535156 52.625 30.300781 52.449219 C 30.0625 52.273438 29.710938 52.359375 29.535156 52.597656 C 29.328125 52.890625 29.121094 53.210938 28.945312 53.507812 C 28.796875 53.742188 28.886719 54.09375 29.121094 54.242188 C 29.210938 54.300781 29.328125 54.328125 29.414062 54.328125 Z M 29.414062 54.328125 " fill-opacity="1" fill-rule="nonzero"/><path fill="#5e17eb" d="M 19.761719 77.769531 C 19.703125 78.121094 19.644531 78.472656 19.613281 78.855469 C 19.582031 79.148438 19.789062 79.414062 20.085938 79.472656 C 20.113281 79.472656 20.144531 79.472656 20.144531 79.472656 C 20.40625 79.472656 20.644531 79.265625 20.671875 79.003906 C 20.730469 78.648438 20.761719 78.296875 20.820312 77.945312 C 20.878906 77.652344 20.671875 77.355469 20.378906 77.328125 C 20.085938 77.296875 19.820312 77.476562 19.761719 77.769531 Z M 19.761719 77.769531 " fill-opacity="1" fill-rule="nonzero"/><path fill="#5e17eb" d="M 19.230469 83.171875 C 19.199219 83.527344 19.199219 83.90625 19.171875 84.261719 C 19.171875 84.554688 19.378906 84.816406 19.703125 84.816406 L 19.730469 84.816406 C 20.027344 84.816406 20.261719 84.582031 20.261719 84.289062 C 20.289062 83.9375 20.289062 83.585938 20.320312 83.230469 C 20.289062 82.9375 20.085938 82.703125 19.789062 82.671875 C 19.496094 82.644531 19.230469 82.878906 19.230469 83.171875 Z M 19.230469 83.171875 " fill-opacity="1" fill-rule="nonzero"/><path fill="#5e17eb" d="M 100.386719 29.714844 C 100.742188 29.832031 101.066406 29.949219 101.390625 30.066406 C 101.449219 30.097656 101.507812 30.097656 101.566406 30.097656 C 101.800781 30.097656 102.007812 29.949219 102.066406 29.742188 C 102.15625 29.449219 102.035156 29.15625 101.742188 29.039062 C 101.390625 28.921875 101.066406 28.804688 100.710938 28.6875 C 100.417969 28.597656 100.125 28.746094 100.035156 29.007812 C 99.945312 29.332031 100.09375 29.625 100.386719 29.714844 Z M 100.386719 29.714844 " fill-opacity="1" fill-rule="nonzero"/><path fill="#5e17eb" d="M 33.007812 49.746094 C 33.214844 49.453125 33.449219 49.1875 33.683594 48.894531 C 33.859375 48.660156 33.832031 48.335938 33.597656 48.132812 C 33.359375 47.957031 33.035156 47.984375 32.832031 48.21875 C 32.59375 48.511719 32.390625 48.777344 32.152344 49.070312 C 31.949219 49.304688 32.007812 49.628906 32.242188 49.835938 C 32.328125 49.921875 32.449219 49.953125 32.566406 49.953125 C 32.710938 49.953125 32.890625 49.894531 33.007812 49.746094 Z M 33.007812 49.746094 " fill-opacity="1" fill-rule="nonzero"/><path fill="#5e17eb" d="M 36.453125 45.664062 C 36.6875 45.398438 36.953125 45.136719 37.1875 44.898438 C 37.394531 44.695312 37.394531 44.34375 37.1875 44.136719 C 36.980469 43.929688 36.628906 43.929688 36.421875 44.136719 C 36.15625 44.402344 35.921875 44.664062 35.65625 44.929688 C 35.449219 45.136719 35.449219 45.488281 35.6875 45.695312 C 35.804688 45.78125 35.949219 45.839844 36.070312 45.839844 C 36.214844 45.839844 36.363281 45.78125 36.453125 45.664062 Z M 36.453125 45.664062 " fill-opacity="1" fill-rule="nonzero"/><path fill="#5e17eb" d="M 22.027344 105.730469 C 22.085938 105.964844 22.320312 106.113281 22.558594 106.113281 C 22.617188 106.113281 22.675781 106.113281 22.734375 106.082031 C 23.027344 105.996094 23.175781 105.703125 23.085938 105.410156 C 22.941406 105.054688 22.851562 104.734375 22.734375 104.378906 C 22.644531 104.085938 22.351562 103.941406 22.054688 104.027344 C 21.761719 104.117188 21.613281 104.410156 21.703125 104.703125 C 21.820312 105.054688 21.910156 105.410156 22.027344 105.730469 Z M 22.027344 105.730469 " fill-opacity="1" fill-rule="nonzero"/><path fill="#5e17eb" d="M 20.996094 74.15625 C 21.027344 74.15625 21.085938 74.15625 21.113281 74.15625 C 21.351562 74.15625 21.585938 73.980469 21.644531 73.746094 C 21.734375 73.390625 21.792969 73.039062 21.878906 72.714844 C 21.9375 72.394531 21.761719 72.097656 21.46875 72.039062 C 21.171875 71.980469 20.878906 72.160156 20.820312 72.453125 C 20.730469 72.804688 20.644531 73.15625 20.585938 73.507812 C 20.527344 73.804688 20.703125 74.097656 20.996094 74.15625 Z M 20.996094 74.15625 " fill-opacity="1" fill-rule="nonzero"/><path fill="#5e17eb" d="M 19.671875 95.128906 C 19.703125 95.390625 19.9375 95.597656 20.203125 95.597656 C 20.230469 95.597656 20.261719 95.597656 20.261719 95.597656 C 20.554688 95.570312 20.761719 95.273438 20.703125 94.980469 C 20.644531 94.628906 20.613281 94.277344 20.585938 93.921875 C 20.554688 93.628906 20.289062 93.425781 19.996094 93.453125 C 19.703125 93.484375 19.496094 93.746094 19.523438 94.042969 C 19.554688 94.394531 19.613281 94.777344 19.671875 95.128906 Z M 19.671875 95.128906 " fill-opacity="1" fill-rule="nonzero"/><path fill="#5e17eb" d="M 96.265625 28.480469 C 96.324219 28.480469 96.355469 28.511719 96.414062 28.511719 C 96.648438 28.511719 96.886719 28.363281 96.945312 28.097656 C 97.03125 27.804688 96.855469 27.511719 96.5625 27.453125 C 96.207031 27.363281 95.855469 27.277344 95.5 27.1875 C 95.207031 27.128906 94.914062 27.304688 94.855469 27.570312 C 94.765625 27.863281 94.941406 28.15625 95.238281 28.214844 C 95.589844 28.304688 95.941406 28.394531 96.265625 28.480469 Z M 96.265625 28.480469 " fill-opacity="1" fill-rule="nonzero"/><path fill="#5e17eb" d="M 20.613281 100.503906 C 20.671875 100.765625 20.910156 100.914062 21.144531 100.914062 C 21.171875 100.914062 21.230469 100.914062 21.261719 100.914062 C 21.554688 100.855469 21.734375 100.5625 21.675781 100.269531 C 21.585938 99.886719 21.496094 99.5625 21.4375 99.210938 C 21.378906 98.917969 21.085938 98.742188 20.789062 98.800781 C 20.496094 98.859375 20.320312 99.152344 20.378906 99.445312 C 20.46875 99.796875 20.527344 100.152344 20.613281 100.503906 Z M 20.613281 100.503906 " fill-opacity="1" fill-rule="nonzero"/><path fill="#5e17eb" d="M 22.320312 68.925781 C 22.378906 68.957031 22.4375 68.957031 22.5 68.957031 C 22.734375 68.957031 22.941406 68.808594 23.027344 68.574219 C 23.144531 68.222656 23.234375 67.898438 23.351562 67.546875 C 23.441406 67.253906 23.292969 66.960938 23 66.871094 C 22.703125 66.78125 22.410156 66.929688 22.320312 67.222656 C 22.203125 67.574219 22.085938 67.929688 21.96875 68.25 C 21.878906 68.546875 22.027344 68.839844 22.320312 68.925781 Z M 22.320312 68.925781 " fill-opacity="1" fill-rule="nonzero"/><path fill="#5e17eb" d="M 106.335938 32.125 C 106.421875 32.152344 106.480469 32.183594 106.570312 32.183594 C 106.777344 32.183594 106.980469 32.0625 107.070312 31.859375 C 107.1875 31.59375 107.070312 31.269531 106.804688 31.152344 C 106.480469 31.007812 106.15625 30.859375 105.804688 30.714844 C 105.539062 30.597656 105.214844 30.714844 105.097656 30.976562 C 104.980469 31.242188 105.097656 31.566406 105.363281 31.683594 C 105.6875 31.828125 106.011719 31.976562 106.335938 32.125 Z M 106.335938 32.125 " fill-opacity="1" fill-rule="nonzero"/><path fill="#5e17eb" d="M 19.171875 89.722656 C 19.171875 89.988281 19.40625 90.222656 19.730469 90.222656 C 20.027344 90.222656 20.261719 89.957031 20.261719 89.664062 C 20.230469 89.3125 20.230469 88.960938 20.230469 88.605469 C 20.230469 88.3125 19.964844 88.078125 19.671875 88.078125 C 19.378906 88.078125 19.140625 88.34375 19.140625 88.636719 C 19.140625 88.988281 19.171875 89.371094 19.171875 89.722656 Z M 19.171875 89.722656 " fill-opacity="1" fill-rule="nonzero"/><path fill="#5e17eb" d="M 123.613281 44.226562 C 123.671875 44.285156 123.761719 44.371094 123.789062 44.402344 C 123.910156 44.519531 124.027344 44.546875 124.171875 44.546875 C 124.320312 44.546875 124.4375 44.488281 124.554688 44.402344 C 124.761719 44.195312 124.761719 43.84375 124.554688 43.636719 C 124.496094 43.578125 124.410156 43.492188 124.351562 43.433594 C 124.144531 43.253906 123.96875 43.050781 123.789062 42.875 C 123.585938 42.667969 123.230469 42.667969 123.023438 42.875 C 122.820312 43.078125 122.820312 43.433594 123.023438 43.636719 C 123.203125 43.8125 123.40625 44.046875 123.613281 44.226562 Z M 123.613281 44.226562 " fill-opacity="1" fill-rule="nonzero"/><path fill="#5e17eb" d="M 91.058594 27.363281 C 91.085938 27.363281 91.117188 27.363281 91.144531 27.363281 C 91.410156 27.363281 91.644531 27.1875 91.675781 26.925781 C 91.734375 26.628906 91.527344 26.335938 91.234375 26.308594 C 90.878906 26.25 90.527344 26.191406 90.144531 26.132812 C 89.851562 26.074219 89.585938 26.277344 89.527344 26.570312 C 89.46875 26.867188 89.703125 27.128906 89.996094 27.1875 C 90.351562 27.246094 90.703125 27.304688 91.058594 27.363281 Z M 91.058594 27.363281 " fill-opacity="1" fill-rule="nonzero"/><path fill="#5e17eb" d="M 40.308594 41.90625 C 40.574219 41.667969 40.835938 41.433594 41.101562 41.199219 C 41.335938 40.992188 41.367188 40.671875 41.160156 40.4375 C 40.957031 40.199219 40.632812 40.171875 40.394531 40.375 C 40.128906 40.613281 39.835938 40.847656 39.570312 41.109375 C 39.367188 41.316406 39.335938 41.667969 39.542969 41.875 C 39.660156 41.992188 39.808594 42.050781 39.953125 42.050781 C 40.070312 42.050781 40.21875 41.992188 40.308594 41.90625 Z M 40.308594 41.90625 " fill-opacity="1" fill-rule="nonzero"/><path fill="#5e17eb" d="M 23.824219 109.140625 C 23.558594 109.257812 23.410156 109.578125 23.527344 109.84375 C 23.675781 110.167969 23.792969 110.519531 23.941406 110.84375 C 24.027344 111.046875 24.234375 111.164062 24.441406 111.164062 C 24.5 111.164062 24.589844 111.164062 24.648438 111.136719 C 24.910156 111.019531 25.058594 110.695312 24.941406 110.429688 C 24.792969 110.078125 24.648438 109.753906 24.527344 109.433594 C 24.410156 109.167969 24.117188 109.019531 23.824219 109.140625 Z M 23.824219 109.140625 " fill-opacity="1" fill-rule="nonzero"/><path fill="#5e17eb" d="M 142.394531 86.785156 C 142.394531 86.492188 142.160156 86.257812 141.863281 86.257812 C 141.570312 86.257812 141.335938 86.492188 141.335938 86.785156 L 141.335938 86.902344 L 142.425781 86.902344 Z M 142.394531 86.785156 " fill-opacity="1" fill-rule="nonzero"/><path fill="#5e17eb" d="M 44.429688 38.527344 C 44.722656 38.320312 44.988281 38.113281 45.28125 37.878906 C 45.519531 37.703125 45.578125 37.382812 45.398438 37.117188 C 45.222656 36.851562 44.898438 36.824219 44.632812 37 C 44.339844 37.203125 44.046875 37.441406 43.75 37.644531 C 43.515625 37.820312 43.457031 38.175781 43.632812 38.410156 C 43.78125 38.554688 43.957031 38.644531 44.105469 38.644531 C 44.222656 38.644531 44.339844 38.613281 44.429688 38.527344 Z M 44.429688 38.527344 " fill-opacity="1" fill-rule="nonzero"/><path fill="#5e17eb" d="M 142.367188 88.019531 C 142.367188 87.667969 142.367188 87.285156 142.367188 86.933594 L 141.277344 86.933594 C 141.304688 87.285156 141.304688 87.636719 141.304688 87.992188 C 141.304688 88.285156 141.542969 88.546875 141.835938 88.546875 C 142.128906 88.546875 142.367188 88.3125 142.367188 88.019531 Z M 142.367188 88.019531 " fill-opacity="1" fill-rule="nonzero"/><path fill="#5e17eb" d="M 85.816406 25.601562 C 85.464844 25.574219 85.082031 25.542969 84.726562 25.515625 C 84.433594 25.484375 84.167969 25.71875 84.140625 26.011719 C 84.140625 26.335938 84.375 26.601562 84.667969 26.601562 C 85.023438 26.628906 85.375 26.660156 85.730469 26.6875 C 85.757812 26.6875 85.757812 26.6875 85.789062 26.6875 C 86.050781 26.6875 86.316406 26.484375 86.316406 26.191406 C 86.347656 25.894531 86.113281 25.632812 85.816406 25.601562 Z M 85.816406 25.601562 " fill-opacity="1" fill-rule="nonzero"/><path fill="#5e17eb" d="M 48.578125 35.589844 C 48.667969 35.589844 48.785156 35.558594 48.875 35.5 C 49.167969 35.324219 49.492188 35.121094 49.785156 34.941406 C 50.050781 34.796875 50.140625 34.445312 49.960938 34.207031 C 49.816406 33.945312 49.492188 33.855469 49.226562 34.03125 C 48.902344 34.207031 48.609375 34.414062 48.285156 34.589844 C 48.019531 34.738281 47.960938 35.089844 48.109375 35.324219 C 48.226562 35.5 48.402344 35.589844 48.578125 35.589844 Z M 48.578125 35.589844 " fill-opacity="1" fill-rule="nonzero"/><path fill="#5e17eb" d="M 100.507812 144.0625 C 100.183594 144.179688 99.828125 144.296875 99.476562 144.414062 C 99.179688 144.503906 99.035156 144.828125 99.121094 145.089844 C 99.210938 145.324219 99.417969 145.472656 99.621094 145.472656 C 99.683594 145.472656 99.742188 145.472656 99.800781 145.445312 C 100.152344 145.324219 100.476562 145.207031 100.828125 145.089844 C 101.125 145.003906 101.269531 144.679688 101.152344 144.414062 C 101.09375 144.121094 100.800781 143.976562 100.507812 144.0625 Z M 100.507812 144.0625 " fill-opacity="1" fill-rule="nonzero"/><path fill="#5e17eb" d="M 136.890625 61.464844 C 136.742188 61.144531 136.597656 60.820312 136.417969 60.496094 C 136.300781 60.234375 135.976562 60.117188 135.683594 60.234375 C 135.417969 60.351562 135.300781 60.671875 135.417969 60.96875 C 135.59375 61.261719 135.742188 61.585938 135.890625 61.90625 C 135.976562 62.113281 136.183594 62.230469 136.390625 62.230469 C 136.476562 62.230469 136.535156 62.199219 136.625 62.171875 C 136.890625 62.054688 137.007812 61.730469 136.890625 61.464844 Z M 136.890625 61.464844 " fill-opacity="1" fill-rule="nonzero"/><path fill="#5e17eb" d="M 95.382812 145.589844 C 95.03125 145.679688 94.675781 145.765625 94.355469 145.824219 C 94.058594 145.882812 93.882812 146.179688 93.941406 146.472656 C 94 146.734375 94.234375 146.882812 94.472656 146.882812 C 94.5 146.882812 94.558594 146.882812 94.589844 146.882812 C 94.941406 146.792969 95.296875 146.707031 95.648438 146.617188 C 95.941406 146.558594 96.121094 146.265625 96.03125 145.972656 C 95.972656 145.679688 95.679688 145.503906 95.382812 145.589844 Z M 95.382812 145.589844 " fill-opacity="1" fill-rule="nonzero"/><path fill="#5e17eb" d="M 90.113281 146.648438 C 89.761719 146.707031 89.410156 146.765625 89.054688 146.792969 C 88.761719 146.824219 88.554688 147.117188 88.585938 147.410156 C 88.613281 147.675781 88.847656 147.882812 89.113281 147.882812 C 89.144531 147.882812 89.171875 147.882812 89.203125 147.882812 C 89.554688 147.824219 89.910156 147.792969 90.292969 147.734375 C 90.585938 147.675781 90.792969 147.410156 90.734375 147.117188 C 90.703125 146.792969 90.410156 146.589844 90.113281 146.648438 Z M 90.113281 146.648438 " fill-opacity="1" fill-rule="nonzero"/><path fill="#5e17eb" d="M 140.246094 70.660156 C 140.15625 70.367188 139.863281 70.191406 139.570312 70.277344 C 139.273438 70.367188 139.097656 70.660156 139.1875 70.953125 C 139.273438 71.277344 139.363281 71.628906 139.453125 71.980469 C 139.511719 72.21875 139.746094 72.394531 139.980469 72.394531 C 140.039062 72.394531 140.070312 72.394531 140.128906 72.363281 C 140.421875 72.277344 140.597656 71.980469 140.511719 71.71875 C 140.421875 71.367188 140.335938 71.011719 140.246094 70.660156 Z M 140.246094 70.660156 " fill-opacity="1" fill-rule="nonzero"/><path fill="#5e17eb" d="M 138.890625 66.488281 C 138.773438 66.136719 138.65625 65.8125 138.507812 65.460938 C 138.390625 65.167969 138.097656 65.050781 137.800781 65.136719 C 137.507812 65.253906 137.390625 65.550781 137.480469 65.84375 C 137.65625 66.167969 137.773438 66.519531 137.890625 66.84375 C 137.980469 67.078125 138.183594 67.195312 138.390625 67.195312 C 138.449219 67.195312 138.507812 67.195312 138.566406 67.164062 C 138.863281 67.078125 139.007812 66.753906 138.890625 66.488281 Z M 138.890625 66.488281 " fill-opacity="1" fill-rule="nonzero"/><path fill="#5e17eb" d="M 131.0625 52.859375 C 131.179688 52.859375 131.269531 52.832031 131.355469 52.773438 C 131.589844 52.597656 131.652344 52.273438 131.503906 52.007812 C 131.296875 51.714844 131.089844 51.421875 130.886719 51.128906 C 130.707031 50.890625 130.382812 50.832031 130.121094 51.011719 C 129.882812 51.1875 129.824219 51.507812 130 51.773438 C 130.207031 52.039062 130.414062 52.332031 130.621094 52.625 C 130.738281 52.773438 130.886719 52.859375 131.0625 52.859375 Z M 131.0625 52.859375 " fill-opacity="1" fill-rule="nonzero"/><path fill="#5e17eb" d="M 134.417969 56.621094 C 134.242188 56.296875 134.0625 56.003906 133.859375 55.679688 C 133.710938 55.414062 133.386719 55.328125 133.121094 55.503906 C 132.855469 55.652344 132.769531 55.972656 132.945312 56.238281 C 133.121094 56.53125 133.300781 56.824219 133.476562 57.148438 C 133.5625 57.324219 133.769531 57.414062 133.945312 57.414062 C 134.035156 57.414062 134.125 57.382812 134.210938 57.355469 C 134.476562 57.207031 134.566406 56.882812 134.417969 56.621094 Z M 134.417969 56.621094 " fill-opacity="1" fill-rule="nonzero"/><path fill="#5e17eb" d="M 126.46875 127.9375 C 126.617188 127.9375 126.765625 127.878906 126.882812 127.761719 C 127.117188 127.496094 127.351562 127.203125 127.589844 126.9375 C 127.792969 126.703125 127.765625 126.378906 127.527344 126.175781 C 127.292969 125.96875 126.941406 126 126.765625 126.234375 C 126.527344 126.496094 126.292969 126.761719 126.058594 127.027344 C 125.851562 127.261719 125.878906 127.585938 126.117188 127.789062 C 126.234375 127.878906 126.351562 127.9375 126.46875 127.9375 Z M 126.46875 127.9375 " fill-opacity="1" fill-rule="nonzero"/><path fill="#5e17eb" d="M 139.273438 104.46875 C 139.332031 104.46875 139.363281 104.496094 139.421875 104.496094 C 139.65625 104.496094 139.863281 104.351562 139.953125 104.117188 C 140.039062 103.761719 140.15625 103.410156 140.246094 103.058594 C 140.335938 102.765625 140.15625 102.472656 139.863281 102.382812 C 139.570312 102.292969 139.273438 102.472656 139.1875 102.765625 C 139.097656 103.117188 139.007812 103.441406 138.890625 103.792969 C 138.804688 104.085938 138.980469 104.378906 139.273438 104.46875 Z M 139.273438 104.46875 " fill-opacity="1" fill-rule="nonzero"/><path fill="#5e17eb" d="M 84.785156 147.234375 C 84.433594 147.265625 84.082031 147.292969 83.726562 147.292969 C 83.433594 147.292969 83.195312 147.558594 83.226562 147.851562 C 83.226562 148.144531 83.492188 148.378906 83.757812 148.378906 L 83.785156 148.378906 C 84.140625 148.351562 84.523438 148.351562 84.875 148.320312 C 85.167969 148.292969 85.40625 148.058594 85.375 147.734375 C 85.347656 147.410156 85.109375 147.207031 84.785156 147.234375 Z M 84.785156 147.234375 " fill-opacity="1" fill-rule="nonzero"/><path fill="#5e17eb" d="M 138.273438 107.550781 C 138.007812 107.433594 137.683594 107.582031 137.566406 107.875 C 137.449219 108.199219 137.300781 108.550781 137.183594 108.875 C 137.066406 109.140625 137.214844 109.460938 137.480469 109.578125 C 137.539062 109.609375 137.597656 109.609375 137.683594 109.609375 C 137.890625 109.609375 138.097656 109.492188 138.183594 109.257812 C 138.332031 108.902344 138.449219 108.582031 138.566406 108.226562 C 138.6875 107.964844 138.539062 107.640625 138.273438 107.550781 Z M 138.273438 107.550781 " fill-opacity="1" fill-rule="nonzero"/><path fill="#5e17eb" d="M 132.59375 119.183594 C 132.679688 119.242188 132.769531 119.273438 132.886719 119.273438 C 133.0625 119.273438 133.238281 119.183594 133.359375 119.007812 C 133.535156 118.683594 133.742188 118.390625 133.917969 118.066406 C 134.0625 117.804688 133.976562 117.480469 133.710938 117.332031 C 133.445312 117.1875 133.121094 117.273438 132.976562 117.539062 C 132.796875 117.832031 132.621094 118.15625 132.414062 118.449219 C 132.269531 118.714844 132.328125 119.039062 132.59375 119.183594 Z M 132.59375 119.183594 " fill-opacity="1" fill-rule="nonzero"/><path fill="#5e17eb" d="M 26 114.042969 C 25.734375 114.191406 25.617188 114.515625 25.765625 114.777344 C 25.941406 115.101562 26.089844 115.425781 26.265625 115.746094 C 26.355469 115.921875 26.558594 116.042969 26.738281 116.042969 C 26.824219 116.042969 26.914062 116.011719 27.003906 115.984375 C 27.265625 115.835938 27.355469 115.511719 27.238281 115.25 C 27.0625 114.925781 26.882812 114.601562 26.738281 114.277344 C 26.589844 114.015625 26.265625 113.898438 26 114.042969 Z M 26 114.042969 " fill-opacity="1" fill-rule="nonzero"/><path fill="#5e17eb" d="M 119.109375 133.695312 C 118.84375 133.929688 118.550781 134.136719 118.285156 134.371094 C 118.050781 134.546875 118.019531 134.898438 118.199219 135.132812 C 118.316406 135.28125 118.460938 135.339844 118.609375 135.339844 C 118.726562 135.339844 118.84375 135.308594 118.933594 135.222656 C 119.226562 134.988281 119.492188 134.78125 119.789062 134.546875 C 120.023438 134.371094 120.050781 134.015625 119.875 133.78125 C 119.667969 133.546875 119.347656 133.519531 119.109375 133.695312 Z M 119.109375 133.695312 " fill-opacity="1" fill-rule="nonzero"/><path fill="#5e17eb" d="M 105.480469 142.09375 C 105.15625 142.242188 104.832031 142.390625 104.507812 142.535156 C 104.246094 142.652344 104.097656 142.976562 104.214844 143.242188 C 104.304688 143.445312 104.507812 143.5625 104.714844 143.5625 C 104.773438 143.5625 104.863281 143.5625 104.921875 143.535156 C 105.246094 143.386719 105.597656 143.242188 105.921875 143.09375 C 106.1875 142.976562 106.304688 142.652344 106.1875 142.390625 C 106.070312 142.09375 105.746094 141.976562 105.480469 142.09375 Z M 105.480469 142.09375 " fill-opacity="1" fill-rule="nonzero"/><path fill="#5e17eb" d="M 130.0625 122.003906 C 129.855469 122.296875 129.648438 122.589844 129.441406 122.855469 C 129.265625 123.089844 129.324219 123.441406 129.558594 123.621094 C 129.648438 123.679688 129.765625 123.738281 129.882812 123.738281 C 130.0625 123.738281 130.207031 123.648438 130.324219 123.53125 C 130.53125 123.238281 130.765625 122.945312 130.972656 122.648438 C 131.121094 122.386719 131.0625 122.0625 130.824219 121.886719 C 130.589844 121.710938 130.238281 121.769531 130.0625 122.003906 Z M 130.0625 122.003906 " fill-opacity="1" fill-rule="nonzero"/><path fill="#5e17eb" d="M 110.277344 139.714844 C 109.957031 139.890625 109.660156 140.066406 109.335938 140.214844 C 109.070312 140.363281 108.984375 140.683594 109.101562 140.949219 C 109.191406 141.125 109.394531 141.242188 109.574219 141.242188 C 109.660156 141.242188 109.75 141.214844 109.835938 141.183594 C 110.160156 141.007812 110.484375 140.832031 110.78125 140.65625 C 111.042969 140.507812 111.132812 140.1875 110.984375 139.921875 C 110.867188 139.65625 110.515625 139.570312 110.277344 139.714844 Z M 110.277344 139.714844 " fill-opacity="1" fill-rule="nonzero"/><path fill="#5e17eb" d="M 141.421875 75.949219 C 141.363281 75.652344 141.101562 75.449219 140.804688 75.507812 C 140.511719 75.566406 140.304688 75.859375 140.363281 76.152344 C 140.421875 76.503906 140.480469 76.859375 140.539062 77.210938 C 140.570312 77.476562 140.804688 77.652344 141.070312 77.652344 C 141.101562 77.652344 141.128906 77.652344 141.160156 77.652344 C 141.453125 77.59375 141.660156 77.328125 141.601562 77.035156 C 141.542969 76.683594 141.480469 76.328125 141.421875 75.949219 Z M 141.421875 75.949219 " fill-opacity="1" fill-rule="nonzero"/><path fill="#5e17eb" d="M 114.8125 136.894531 C 114.519531 137.101562 114.222656 137.308594 113.929688 137.484375 C 113.695312 137.660156 113.605469 137.984375 113.78125 138.21875 C 113.898438 138.363281 114.046875 138.453125 114.222656 138.453125 C 114.3125 138.453125 114.429688 138.421875 114.519531 138.363281 C 114.8125 138.160156 115.136719 137.953125 115.429688 137.746094 C 115.667969 137.570312 115.753906 137.25 115.578125 136.984375 C 115.402344 136.777344 115.078125 136.71875 114.8125 136.894531 Z M 114.8125 136.894531 " fill-opacity="1" fill-rule="nonzero"/><path fill="#5e17eb" d="M 141.070312 81.441406 C 141.101562 81.792969 141.128906 82.144531 141.160156 82.496094 C 141.1875 82.792969 141.421875 82.996094 141.6875 82.996094 L 141.71875 82.996094 C 142.011719 82.96875 142.246094 82.703125 142.21875 82.410156 C 142.1875 82.058594 142.160156 81.675781 142.128906 81.324219 C 142.101562 81.027344 141.835938 80.792969 141.542969 80.824219 C 141.246094 80.882812 141.039062 81.144531 141.070312 81.441406 Z M 141.070312 81.441406 " fill-opacity="1" fill-rule="nonzero"/><path fill="#5e17eb" d="M 67.742188 145.972656 C 67.449219 145.914062 67.152344 146.089844 67.09375 146.382812 C 67.035156 146.675781 67.210938 146.972656 67.507812 147.03125 C 67.859375 147.117188 68.214844 147.175781 68.566406 147.265625 C 68.597656 147.265625 68.625 147.265625 68.683594 147.265625 C 68.949219 147.265625 69.15625 147.089844 69.214844 146.824219 C 69.273438 146.53125 69.097656 146.238281 68.800781 146.179688 C 68.449219 146.117188 68.097656 146.03125 67.742188 145.972656 Z M 67.742188 145.972656 " fill-opacity="1" fill-rule="nonzero"/><path fill="#5e17eb" d="M 48.050781 137.804688 C 47.785156 137.660156 47.460938 137.71875 47.3125 137.984375 C 47.167969 138.246094 47.226562 138.570312 47.488281 138.71875 C 47.785156 138.921875 48.109375 139.097656 48.402344 139.304688 C 48.492188 139.363281 48.578125 139.394531 48.695312 139.394531 C 48.875 139.394531 49.050781 139.304688 49.167969 139.128906 C 49.285156 138.863281 49.199219 138.539062 48.960938 138.363281 C 48.667969 138.1875 48.34375 137.984375 48.050781 137.804688 Z M 48.050781 137.804688 " fill-opacity="1" fill-rule="nonzero"/><path fill="#5e17eb" d="M 38.804688 131.285156 C 38.601562 131.492188 38.628906 131.84375 38.835938 132.050781 C 39.101562 132.285156 39.367188 132.550781 39.628906 132.785156 C 39.75 132.871094 39.867188 132.929688 39.984375 132.929688 C 40.128906 132.929688 40.277344 132.871094 40.394531 132.753906 C 40.601562 132.519531 40.574219 132.195312 40.367188 131.992188 C 40.101562 131.726562 39.835938 131.492188 39.570312 131.257812 C 39.367188 131.050781 39.011719 131.082031 38.804688 131.285156 Z M 38.804688 131.285156 " fill-opacity="1" fill-rule="nonzero"/><path fill="#5e17eb" d="M 43.664062 134.722656 C 43.429688 134.546875 43.074219 134.574219 42.898438 134.808594 C 42.722656 135.046875 42.75 135.398438 42.984375 135.574219 C 43.28125 135.808594 43.574219 136.015625 43.871094 136.21875 C 43.957031 136.277344 44.074219 136.339844 44.191406 136.339844 C 44.371094 136.339844 44.515625 136.25 44.632812 136.132812 C 44.8125 135.867188 44.753906 135.542969 44.515625 135.367188 C 44.222656 135.164062 43.957031 134.929688 43.664062 134.722656 Z M 43.664062 134.722656 " fill-opacity="1" fill-rule="nonzero"/><path fill="#5e17eb" d="M 52.699219 140.480469 C 52.433594 140.332031 52.113281 140.449219 51.964844 140.714844 C 51.816406 140.980469 51.933594 141.300781 52.199219 141.449219 C 52.523438 141.625 52.847656 141.773438 53.171875 141.949219 C 53.257812 141.976562 53.320312 142.007812 53.40625 142.007812 C 53.613281 142.007812 53.789062 141.890625 53.878906 141.714844 C 53.996094 141.449219 53.90625 141.125 53.640625 140.980469 C 53.320312 140.832031 52.996094 140.65625 52.699219 140.480469 Z M 52.699219 140.480469 " fill-opacity="1" fill-rule="nonzero"/><path fill="#5e17eb" d="M 140.628906 99.269531 C 140.65625 99.269531 140.6875 99.269531 140.746094 99.269531 C 141.011719 99.269531 141.21875 99.09375 141.277344 98.828125 C 141.335938 98.476562 141.421875 98.125 141.480469 97.769531 C 141.480469 97.449219 141.304688 97.183594 141.011719 97.125 C 140.71875 97.066406 140.421875 97.273438 140.394531 97.566406 C 140.335938 97.917969 140.277344 98.269531 140.1875 98.625 C 140.128906 98.917969 140.335938 99.210938 140.628906 99.269531 Z M 140.628906 99.269531 " fill-opacity="1" fill-rule="nonzero"/><path fill="#5e17eb" d="M 28.621094 118.742188 C 28.355469 118.890625 28.296875 119.242188 28.445312 119.476562 C 28.652344 119.773438 28.828125 120.09375 29.03125 120.386719 C 29.152344 120.535156 29.296875 120.625 29.476562 120.625 C 29.5625 120.625 29.679688 120.59375 29.769531 120.535156 C 30.035156 120.359375 30.09375 120.035156 29.917969 119.800781 C 29.738281 119.535156 29.5625 119.242188 29.355469 118.917969 C 29.210938 118.65625 28.855469 118.597656 28.621094 118.742188 Z M 28.621094 118.742188 " fill-opacity="1" fill-rule="nonzero"/><path fill="#5e17eb" d="M 111.632812 33.679688 C 111.308594 33.503906 111.015625 33.328125 110.691406 33.152344 C 110.425781 33.003906 110.101562 33.09375 109.957031 33.355469 C 109.808594 33.621094 109.894531 33.945312 110.160156 34.089844 C 110.484375 34.265625 110.78125 34.445312 111.101562 34.621094 C 111.191406 34.679688 111.28125 34.679688 111.367188 34.679688 C 111.546875 34.679688 111.75 34.589844 111.839844 34.414062 C 111.988281 34.148438 111.898438 33.828125 111.632812 33.679688 Z M 111.632812 33.679688 " fill-opacity="1" fill-rule="nonzero"/><path fill="#5e17eb" d="M 31.625 123.207031 C 31.386719 123.382812 31.328125 123.738281 31.503906 123.972656 C 31.710938 124.265625 31.949219 124.558594 32.183594 124.824219 C 32.300781 124.96875 32.449219 125.03125 32.59375 125.03125 C 32.710938 125.03125 32.832031 125 32.917969 124.910156 C 33.152344 124.734375 33.183594 124.382812 33.007812 124.148438 C 32.832031 123.914062 32.625 123.621094 32.390625 123.324219 C 32.210938 123.089844 31.859375 123.03125 31.625 123.207031 Z M 31.625 123.207031 " fill-opacity="1" fill-rule="nonzero"/><path fill="#5e17eb" d="M 35.039062 127.410156 C 34.804688 127.613281 34.804688 127.9375 35.007812 128.171875 C 35.246094 128.4375 35.507812 128.699219 35.746094 128.964844 C 35.863281 129.082031 36.007812 129.140625 36.128906 129.140625 C 36.273438 129.140625 36.390625 129.082031 36.511719 128.996094 C 36.746094 128.789062 36.746094 128.464844 36.539062 128.230469 C 36.304688 127.964844 36.039062 127.703125 35.804688 127.4375 C 35.597656 127.203125 35.273438 127.203125 35.039062 127.410156 Z M 35.039062 127.410156 " fill-opacity="1" fill-rule="nonzero"/><path fill="#5e17eb" d="M 57.527344 142.742188 C 57.261719 142.625 56.9375 142.769531 56.820312 143.035156 C 56.703125 143.300781 56.851562 143.621094 57.117188 143.738281 C 57.441406 143.886719 57.792969 144.003906 58.117188 144.152344 C 58.175781 144.179688 58.234375 144.179688 58.324219 144.179688 C 58.527344 144.179688 58.734375 144.0625 58.824219 143.828125 C 58.941406 143.59375 58.824219 143.269531 58.527344 143.152344 C 58.207031 143.035156 57.851562 142.886719 57.527344 142.742188 Z M 57.527344 142.742188 " fill-opacity="1" fill-rule="nonzero"/><path fill="#5e17eb" d="M 127.382812 48.367188 C 127.5 48.484375 127.648438 48.570312 127.792969 48.570312 C 127.910156 48.570312 128.03125 48.542969 128.148438 48.453125 C 128.382812 48.277344 128.414062 47.925781 128.207031 47.691406 C 127.972656 47.398438 127.734375 47.132812 127.5 46.867188 C 127.292969 46.632812 126.96875 46.605469 126.734375 46.808594 C 126.5 47.015625 126.46875 47.339844 126.675781 47.574219 C 126.941406 47.808594 127.148438 48.074219 127.382812 48.367188 Z M 127.382812 48.367188 " fill-opacity="1" fill-rule="nonzero"/><path fill="#5e17eb" d="M 123.085938 130.140625 C 122.820312 130.375 122.582031 130.640625 122.320312 130.875 C 122.113281 131.082031 122.082031 131.402344 122.289062 131.636719 C 122.40625 131.753906 122.523438 131.816406 122.671875 131.816406 C 122.820312 131.816406 122.9375 131.753906 123.054688 131.667969 C 123.320312 131.433594 123.585938 131.167969 123.847656 130.902344 C 124.054688 130.699219 124.054688 130.347656 123.847656 130.140625 C 123.644531 129.933594 123.289062 129.933594 123.085938 130.140625 Z M 123.085938 130.140625 " fill-opacity="1" fill-rule="nonzero"/><path fill="#5e17eb" d="M 142.042969 93.453125 C 142.070312 93.101562 142.101562 92.71875 142.160156 92.367188 C 142.1875 92.042969 141.953125 91.808594 141.660156 91.78125 C 141.363281 91.75 141.101562 91.984375 141.070312 92.277344 C 141.039062 92.632812 141.011719 92.984375 140.980469 93.335938 C 140.953125 93.628906 141.160156 93.894531 141.453125 93.921875 C 141.480469 93.921875 141.480469 93.921875 141.511719 93.921875 C 141.777344 93.921875 142.011719 93.71875 142.042969 93.453125 Z M 142.042969 93.453125 " fill-opacity="1" fill-rule="nonzero"/><path fill="#5e17eb" d="M 120.199219 40.875 C 120.347656 40.875 120.492188 40.816406 120.613281 40.671875 C 120.816406 40.4375 120.789062 40.113281 120.550781 39.90625 C 120.289062 39.671875 119.992188 39.4375 119.699219 39.203125 C 119.464844 39.027344 119.140625 39.054688 118.933594 39.289062 C 118.726562 39.523438 118.785156 39.847656 119.023438 40.054688 C 119.316406 40.316406 119.582031 40.554688 119.847656 40.757812 C 119.933594 40.847656 120.082031 40.875 120.199219 40.875 Z M 120.199219 40.875 " fill-opacity="1" fill-rule="nonzero"/><path fill="#5e17eb" d="M 136.214844 112.546875 C 135.949219 112.429688 135.625 112.546875 135.507812 112.808594 C 135.359375 113.132812 135.183594 113.457031 135.035156 113.78125 C 134.886719 114.042969 135.007812 114.367188 135.269531 114.515625 C 135.359375 114.542969 135.417969 114.574219 135.507812 114.574219 C 135.710938 114.574219 135.890625 114.457031 135.976562 114.277344 C 136.152344 113.957031 136.300781 113.632812 136.449219 113.308594 C 136.597656 112.988281 136.476562 112.664062 136.214844 112.546875 Z M 136.214844 112.546875 " fill-opacity="1" fill-rule="nonzero"/><path fill="#5e17eb" d="M 115.605469 37.5 C 115.695312 37.558594 115.8125 37.585938 115.929688 37.585938 C 116.109375 37.585938 116.253906 37.5 116.371094 37.351562 C 116.550781 37.117188 116.492188 36.765625 116.253906 36.585938 C 115.960938 36.382812 115.667969 36.175781 115.34375 35.972656 C 115.105469 35.792969 114.753906 35.855469 114.578125 36.117188 C 114.429688 36.382812 114.488281 36.734375 114.722656 36.882812 C 115.019531 37.085938 115.3125 37.292969 115.605469 37.5 Z M 115.605469 37.5 " fill-opacity="1" fill-rule="nonzero"/><path fill="#5e17eb" d="M 62.5625 144.589844 C 62.265625 144.503906 61.972656 144.652344 61.886719 144.945312 C 61.796875 145.238281 61.945312 145.53125 62.238281 145.621094 C 62.589844 145.738281 62.945312 145.824219 63.269531 145.941406 C 63.328125 145.972656 63.355469 145.972656 63.414062 145.972656 C 63.652344 145.972656 63.855469 145.824219 63.945312 145.589844 C 64.0625 145.296875 63.886719 144.972656 63.59375 144.914062 C 63.238281 144.828125 62.914062 144.710938 62.5625 144.589844 Z M 62.5625 144.589844 " fill-opacity="1" fill-rule="nonzero"/><path fill="#5e17eb" d="M 73.042969 146.882812 C 72.746094 146.851562 72.480469 147.058594 72.421875 147.351562 C 72.394531 147.644531 72.601562 147.910156 72.894531 147.96875 C 73.246094 148.027344 73.628906 148.058594 73.984375 148.085938 C 74.011719 148.085938 74.011719 148.085938 74.042969 148.085938 C 74.308594 148.085938 74.542969 147.882812 74.570312 147.617188 C 74.601562 147.292969 74.394531 147.03125 74.101562 147 C 73.746094 146.972656 73.394531 146.914062 73.042969 146.882812 Z M 73.042969 146.882812 " fill-opacity="1" fill-rule="nonzero"/><path fill="#5e17eb" d="M 78.371094 147.324219 C 78.074219 147.324219 77.808594 147.558594 77.808594 147.851562 C 77.808594 148.144531 78.046875 148.410156 78.339844 148.410156 C 78.691406 148.410156 79.074219 148.441406 79.429688 148.441406 C 79.722656 148.441406 79.960938 148.203125 79.960938 147.910156 C 79.988281 147.585938 79.753906 147.351562 79.429688 147.351562 C 79.074219 147.351562 78.722656 147.324219 78.371094 147.324219 Z M 78.371094 147.324219 " fill-opacity="1" fill-rule="nonzero"/><path fill="#5e17eb" d="M 120.140625 126.175781 C 110.042969 136.277344 96.121094 142.507812 80.753906 142.507812 L 80.753906 142.535156 C 65.386719 142.507812 51.464844 136.277344 41.398438 126.203125 C 31.269531 116.160156 25.03125 102.234375 25.03125 86.902344 C 25.03125 71.570312 31.269531 57.675781 41.367188 47.632812 C 51.464844 37.527344 65.386719 31.300781 80.753906 31.300781 L 80.753906 29.039062 C 64.769531 29.039062 50.257812 35.53125 39.777344 46.015625 L 39.75 45.988281 C 29.269531 56.503906 22.761719 70.953125 22.761719 86.902344 C 22.761719 102.851562 29.269531 117.332031 39.777344 127.789062 L 39.75 127.820312 C 50.257812 138.304688 64.738281 144.796875 80.753906 144.796875 L 80.753906 144.769531 C 96.738281 144.769531 111.25 138.277344 121.757812 127.789062 Z M 120.140625 126.175781 " fill-opacity="1" fill-rule="nonzero"/><path fill="#5e17eb" d="M 110.75 45.019531 C 110.367188 45.515625 110.457031 46.25 110.984375 46.632812 C 112.898438 48.074219 116.402344 51.363281 116.402344 51.363281 C 117.875 52.859375 119.285156 54.417969 120.550781 56.0625 C 120.789062 56.355469 121.140625 56.503906 121.464844 56.503906 C 121.699219 56.503906 121.964844 56.414062 122.171875 56.269531 C 122.671875 55.886719 122.761719 55.152344 122.378906 54.652344 C 121.023438 52.917969 117.992188 49.746094 117.992188 49.746094 C 116.226562 47.957031 114.339844 46.308594 112.371094 44.78125 C 111.867188 44.402344 111.132812 44.488281 110.75 45.019531 Z M 110.75 45.019531 " fill-opacity="1" fill-rule="nonzero"/><path fill="#5e17eb" d="M 117.226562 124.617188 C 117.433594 124.414062 117.667969 124.175781 117.875 123.972656 L 116.253906 122.355469 C 116.046875 122.5625 115.84375 122.769531 115.636719 122.972656 C 115.195312 123.414062 115.164062 124.117188 115.605469 124.589844 C 115.84375 124.824219 116.136719 124.941406 116.429688 124.941406 C 116.726562 124.941406 117.019531 124.824219 117.226562 124.617188 Z M 117.226562 124.617188 " fill-opacity="1" fill-rule="nonzero"/><path fill="#5e17eb" d="M 125.585938 112.015625 C 125.027344 111.695312 124.320312 111.871094 123.996094 112.429688 C 121.847656 116.042969 119.226562 119.359375 116.253906 122.328125 L 117.875 123.941406 C 121.023438 120.859375 123.730469 117.390625 126 113.601562 C 126.324219 113.046875 126.144531 112.339844 125.585938 112.015625 Z M 125.585938 112.015625 " fill-opacity="1" fill-rule="nonzero"/><path fill="#5e17eb" d="M 131.828125 81.675781 C 131.886719 81.675781 131.914062 81.675781 131.972656 81.675781 C 132.59375 81.585938 133.0625 81.027344 132.976562 80.382812 C 132.414062 75.710938 131.207031 71.128906 129.414062 66.78125 C 129.175781 66.195312 128.5 65.902344 127.910156 66.167969 C 127.324219 66.402344 127.027344 67.078125 127.292969 67.664062 C 129 71.835938 130.148438 76.210938 130.679688 80.675781 C 130.738281 81.265625 131.238281 81.675781 131.828125 81.675781 Z M 131.828125 81.675781 " fill-opacity="1" fill-rule="nonzero"/><path fill="#5e17eb" d="M 78.78125 139.332031 L 78.8125 139.332031 C 79.429688 139.332031 79.929688 138.835938 79.960938 138.21875 C 79.988281 137.570312 79.488281 137.042969 78.839844 137.011719 C 74.335938 136.835938 69.863281 136.101562 65.59375 134.75 C 64.976562 134.574219 64.328125 134.898438 64.152344 135.515625 C 63.976562 136.132812 64.296875 136.777344 64.917969 136.953125 C 69.390625 138.363281 74.070312 139.15625 78.78125 139.332031 Z M 78.78125 139.332031 " fill-opacity="1" fill-rule="nonzero"/><path fill="#5e17eb" d="M 91.378906 137.070312 C 91.5 137.601562 91.96875 137.953125 92.5 137.953125 C 92.585938 137.953125 92.675781 137.953125 92.765625 137.925781 C 97.355469 136.835938 101.773438 135.164062 105.894531 132.902344 C 106.453125 132.609375 106.660156 131.902344 106.363281 131.34375 C 106.070312 130.816406 105.363281 130.609375 104.804688 130.902344 C 100.859375 133.046875 96.621094 134.664062 92.234375 135.691406 C 91.617188 135.839844 91.234375 136.457031 91.378906 137.070312 Z M 91.378906 137.070312 " fill-opacity="1" fill-rule="nonzero"/><path fill="#5e17eb" d="M 43.546875 124.058594 C 46.164062 126.644531 49.050781 128.964844 52.171875 130.960938 C 52.375 131.082031 52.582031 131.140625 52.789062 131.140625 C 53.171875 131.140625 53.523438 130.960938 53.761719 130.609375 C 54.113281 130.082031 53.9375 129.375 53.40625 129.023438 C 50.433594 127.113281 47.695312 124.882812 45.164062 122.414062 C 44.488281 121.710938 43.808594 121.003906 43.164062 120.328125 C 42.75 119.859375 42.015625 119.832031 41.542969 120.242188 C 41.074219 120.652344 41.042969 121.386719 41.457031 121.855469 C 42.132812 122.621094 42.839844 123.324219 43.546875 124.058594 Z M 43.546875 124.058594 " fill-opacity="1" fill-rule="nonzero"/><path fill="#5e17eb" d="M 85.167969 35.558594 C 85.109375 36.175781 85.550781 36.734375 86.199219 36.824219 C 90.675781 37.320312 95.089844 38.410156 99.269531 40.054688 C 99.417969 40.113281 99.5625 40.140625 99.683594 40.140625 C 100.152344 40.140625 100.566406 39.878906 100.742188 39.40625 C 100.976562 38.820312 100.683594 38.144531 100.09375 37.910156 C 95.707031 36.175781 91.117188 35.03125 86.433594 34.53125 C 85.816406 34.472656 85.226562 34.914062 85.167969 35.558594 Z M 85.167969 35.558594 " fill-opacity="1" fill-rule="nonzero"/><path fill="#5e17eb" d="M 128.265625 86.933594 C 128.265625 73.832031 122.9375 61.996094 114.371094 53.417969 C 105.773438 44.839844 93.882812 39.523438 80.785156 39.523438 C 67.683594 39.523438 55.820312 44.839844 47.226562 53.417969 C 38.628906 61.996094 33.300781 73.832031 33.300781 86.902344 C 33.300781 99.972656 38.628906 111.78125 47.195312 120.359375 C 55.792969 128.9375 67.65625 134.28125 80.753906 134.28125 L 80.753906 131.875 C 68.332031 131.875 57.058594 126.792969 48.902344 118.65625 C 40.71875 110.519531 35.6875 99.296875 35.6875 86.875 C 35.6875 74.480469 40.75 63.230469 48.902344 55.09375 C 57.058594 46.984375 68.332031 41.933594 80.753906 41.933594 C 93.175781 41.933594 104.480469 46.984375 112.632812 55.121094 C 120.789062 63.257812 125.851562 74.507812 125.851562 86.960938 C 125.851562 99.359375 120.789062 110.546875 112.632812 118.714844 L 114.339844 120.417969 C 122.9375 111.839844 128.265625 100.003906 128.265625 86.933594 Z M 128.265625 86.933594 " fill-opacity="1" fill-rule="nonzero"/><path fill="#5e17eb" d="M 116.636719 68.105469 C 116.84375 68.105469 117.050781 68.046875 117.253906 67.957031 C 117.84375 67.636719 118.078125 66.871094 117.726562 66.253906 C 116.046875 63.257812 113.988281 60.496094 111.632812 58 C 111.164062 57.5 110.367188 57.472656 109.867188 57.941406 C 109.367188 58.410156 109.335938 59.175781 109.808594 59.675781 C 112.015625 62.023438 113.957031 64.640625 115.546875 67.457031 C 115.785156 67.871094 116.195312 68.105469 116.636719 68.105469 Z M 116.636719 68.105469 " fill-opacity="1" fill-rule="nonzero"/><path fill="#5e17eb" d="M 121.789062 85.289062 C 121.820312 85.289062 121.847656 85.289062 121.878906 85.289062 C 122.554688 85.230469 123.085938 84.640625 123.023438 83.964844 C 122.789062 80.558594 122.113281 77.179688 121.054688 73.890625 C 120.847656 73.246094 120.140625 72.863281 119.464844 73.097656 C 118.816406 73.304688 118.433594 74.007812 118.667969 74.683594 C 119.699219 77.769531 120.347656 80.941406 120.550781 84.140625 C 120.613281 84.789062 121.140625 85.289062 121.789062 85.289062 Z M 121.789062 85.289062 " fill-opacity="1" fill-rule="nonzero"/><path fill="#5e17eb" d="M 49.699219 60.117188 C 49.167969 59.675781 48.375 59.761719 47.933594 60.292969 C 45.78125 62.964844 43.929688 65.871094 42.484375 68.984375 C 42.160156 69.632812 42.457031 70.367188 43.074219 70.660156 C 43.25 70.75 43.429688 70.777344 43.605469 70.777344 C 44.074219 70.777344 44.515625 70.511719 44.722656 70.074219 C 46.105469 67.136719 47.8125 64.402344 49.875 61.878906 C 50.316406 61.347656 50.226562 60.554688 49.699219 60.117188 Z M 49.699219 60.117188 " fill-opacity="1" fill-rule="nonzero"/><path fill="#5e17eb" d="M 40.542969 100.03125 C 41.515625 103 42.808594 105.878906 44.371094 108.523438 C 44.605469 108.902344 45.015625 109.140625 45.457031 109.140625 C 45.664062 109.140625 45.902344 109.078125 46.105469 108.960938 C 46.695312 108.609375 46.902344 107.847656 46.546875 107.257812 C 45.046875 104.734375 43.808594 102.03125 42.898438 99.238281 C 42.808594 98.945312 42.722656 98.683594 42.632812 98.386719 C 42.425781 97.742188 41.75 97.359375 41.074219 97.566406 C 40.425781 97.769531 40.042969 98.445312 40.25 99.121094 C 40.335938 99.417969 40.425781 99.710938 40.542969 100.03125 Z M 40.542969 100.03125 " fill-opacity="1" fill-rule="nonzero"/><path fill="#5e17eb" d="M 85.523438 46.191406 C 85.582031 45.515625 85.082031 44.898438 84.375 44.839844 C 83.167969 44.753906 81.960938 44.695312 80.753906 44.695312 C 78.515625 44.695312 76.308594 44.871094 74.101562 45.222656 C 73.425781 45.339844 72.953125 45.988281 73.070312 46.664062 C 73.160156 47.28125 73.6875 47.71875 74.308594 47.71875 C 74.367188 47.71875 74.453125 47.71875 74.511719 47.691406 C 76.574219 47.367188 78.664062 47.191406 80.753906 47.191406 C 81.902344 47.191406 83.050781 47.222656 84.167969 47.339844 C 84.875 47.398438 85.464844 46.867188 85.523438 46.191406 Z M 85.523438 46.191406 " fill-opacity="1" fill-rule="nonzero"/><path fill="#5e17eb" d="M 102.359375 53.507812 C 102.566406 53.652344 102.800781 53.710938 103.039062 53.710938 C 103.449219 53.710938 103.863281 53.507812 104.097656 53.125 C 104.480469 52.539062 104.304688 51.773438 103.714844 51.390625 C 100.828125 49.542969 97.710938 48.042969 94.472656 46.925781 C 93.824219 46.691406 93.117188 47.042969 92.882812 47.691406 C 92.644531 48.367188 93 49.101562 93.648438 49.304688 C 96.707031 50.335938 99.652344 51.773438 102.359375 53.507812 Z M 102.359375 53.507812 " fill-opacity="1" fill-rule="nonzero"/><path fill="#5e17eb" d="M 64.238281 48.074219 C 61.058594 49.421875 58.058594 51.128906 55.320312 53.183594 C 54.761719 53.59375 54.671875 54.386719 55.085938 54.917969 C 55.320312 55.238281 55.703125 55.414062 56.085938 55.414062 C 56.351562 55.414062 56.617188 55.328125 56.851562 55.152344 C 59.441406 53.210938 62.238281 51.597656 65.242188 50.335938 C 65.886719 50.070312 66.183594 49.335938 65.917969 48.6875 C 65.652344 48.042969 64.859375 47.808594 64.238281 48.074219 Z M 64.238281 48.074219 " fill-opacity="1" fill-rule="nonzero"/><path fill="#5e17eb" d="M 41.71875 79.238281 C 41.839844 78.5625 41.398438 77.914062 40.71875 77.769531 C 40.042969 77.621094 39.394531 78.0625 39.246094 78.738281 C 38.71875 81.410156 38.453125 84.140625 38.453125 86.875 L 38.421875 86.875 C 38.453125 86.933594 38.453125 86.933594 38.453125 86.933594 C 38.453125 87.609375 38.480469 88.3125 38.511719 88.988281 C 38.542969 89.664062 39.101562 90.164062 39.75 90.164062 C 39.777344 90.164062 39.777344 90.164062 39.808594 90.164062 C 40.484375 90.132812 41.015625 89.546875 40.984375 88.84375 C 40.957031 88.195312 40.925781 87.550781 40.925781 86.902344 L 40.957031 86.902344 C 40.957031 84.347656 41.21875 81.761719 41.71875 79.238281 Z M 41.71875 79.238281 " fill-opacity="1" fill-rule="nonzero"/><g fill="#1b0b54" fill-opacity="1"><g transform="translate(150.182281, 83.629324)"><g><path d="M 21.410156 -17.902344 C 21.128906 -19.078125 20.652344 -20.0625 20.0625 -20.847656 C 19.445312 -21.605469 18.628906 -22.195312 17.675781 -22.558594 C 16.722656 -22.921875 15.601562 -23.121094 14.28125 -23.121094 L 4.488281 -23.121094 L 4.488281 -23.09375 C 3.675781 -23.035156 2.972656 -22.585938 2.554688 -21.914062 C 2.441406 -21.6875 2.328125 -21.4375 2.273438 -21.210938 L 2.246094 -2.046875 C 2.300781 -1.738281 2.414062 -1.429688 2.554688 -1.179688 C 3.003906 -0.421875 3.816406 0.0273438 4.6875 0.0273438 L 14.28125 0.0273438 C 15.601562 0.0273438 16.75 -0.167969 17.675781 -0.53125 C 18.628906 -0.898438 19.445312 -1.488281 20.0625 -2.273438 C 20.652344 -3.03125 21.128906 -4.011719 21.410156 -5.191406 C 21.6875 -6.371094 21.828125 -7.773438 21.828125 -9.34375 L 21.828125 -13.75 C 21.828125 -15.320312 21.6875 -16.722656 21.410156 -17.902344 Z M 6.371094 -4.292969 L 6.371094 -18.800781 C 6.371094 -18.910156 6.398438 -18.96875 6.425781 -18.96875 L 14.199219 -18.96875 C 14.84375 -18.96875 15.402344 -18.882812 15.851562 -18.714844 C 16.300781 -18.546875 16.640625 -18.320312 16.890625 -17.957031 C 17.171875 -17.59375 17.367188 -17.117188 17.480469 -16.527344 C 17.59375 -15.882812 17.675781 -15.09375 17.675781 -14.167969 L 17.675781 -8.921875 C 17.675781 -7.996094 17.59375 -7.210938 17.480469 -6.59375 C 17.367188 -5.976562 17.171875 -5.5 16.890625 -5.132812 C 16.640625 -4.796875 16.300781 -4.546875 15.851562 -4.378906 C 15.402344 -4.207031 14.84375 -4.152344 14.199219 -4.152344 L 6.398438 -4.152344 C 6.398438 -4.152344 6.371094 -4.179688 6.371094 -4.292969 Z M 6.371094 -4.292969 "/></g></g></g><g fill="#1b0b54" fill-opacity="1"><g transform="translate(175.654785, 83.629324)"><g><path d="M 5.613281 -23.121094 L 3.03125 -23.121094 C 2.804688 -23.121094 2.246094 -23.007812 2.246094 -22.136719 L 2.246094 -0.953125 C 2.246094 -0.0859375 2.804688 0.0273438 3.03125 0.0273438 L 5.613281 0.0273438 C 5.835938 0.0273438 6.398438 -0.0859375 6.398438 -0.953125 L 6.398438 -22.136719 C 6.398438 -23.007812 5.835938 -23.121094 5.613281 -23.121094 Z M 5.613281 -23.121094 "/></g></g></g><g fill="#1b0b54" fill-opacity="1"><g transform="translate(185.697913, 83.629324)"><g><path d="M 21.242188 -23.121094 L 9.175781 -23.121094 C 7.941406 -23.121094 6.875 -22.953125 6.003906 -22.644531 C 5.132812 -22.304688 4.378906 -21.773438 3.84375 -21.070312 C 3.28125 -20.34375 2.863281 -19.445312 2.609375 -18.320312 C 2.355469 -17.226562 2.246094 -15.882812 2.246094 -14.335938 L 2.246094 -8.78125 C 2.246094 -7.210938 2.355469 -5.863281 2.609375 -4.742188 C 2.863281 -3.648438 3.28125 -2.722656 3.84375 -1.992188 C 4.40625 -1.289062 5.132812 -0.757812 6.003906 -0.449219 C 6.875 -0.140625 7.941406 0.0273438 9.175781 0.0273438 L 18.769531 0.0273438 C 19.808594 0.0273438 20.621094 -0.394531 21.183594 -1.207031 C 21.71875 -1.992188 21.996094 -3.3125 21.996094 -5.191406 L 21.996094 -12.710938 C 21.996094 -13.777344 21.378906 -13.945312 21.015625 -13.945312 L 11.082031 -13.945312 C 10.859375 -13.945312 10.296875 -13.832031 10.296875 -12.933594 L 10.296875 -10.800781 C 10.296875 -9.875 10.859375 -9.792969 11.082031 -9.792969 L 18.070312 -9.792969 C 18.070312 -9.792969 18.097656 -5.863281 18.097656 -5.863281 C 18.097656 -4.996094 17.957031 -4.628906 17.84375 -4.460938 C 17.703125 -4.238281 17.480469 -4.152344 17.171875 -4.152344 L 9.316406 -4.152344 C 8.726562 -4.152344 8.222656 -4.207031 7.855469 -4.347656 C 7.492188 -4.460938 7.238281 -4.65625 7.015625 -4.964844 C 6.816406 -5.246094 6.648438 -5.667969 6.566406 -6.199219 C 6.453125 -6.761719 6.398438 -7.464844 6.398438 -8.304688 L 6.398438 -14.816406 C 6.398438 -15.65625 6.453125 -16.359375 6.566406 -16.917969 C 6.648438 -17.425781 6.816406 -17.84375 7.015625 -18.152344 C 7.238281 -18.433594 7.492188 -18.628906 7.855469 -18.769531 C 8.222656 -18.882812 8.726562 -18.96875 9.316406 -18.96875 L 21.242188 -18.96875 C 21.464844 -18.96875 22.027344 -19.050781 22.027344 -19.949219 L 22.027344 -22.136719 C 22.027344 -23.007812 21.464844 -23.121094 21.242188 -23.121094 Z M 21.242188 -23.121094 "/></g></g></g><g fill="#1b0b54" fill-opacity="1"><g transform="translate(211.366789, 83.629324)"><g><path d="M 5.613281 -23.121094 L 3.03125 -23.121094 C 2.804688 -23.121094 2.246094 -23.007812 2.246094 -22.136719 L 2.246094 -0.953125 C 2.246094 -0.0859375 2.804688 0.0273438 3.03125 0.0273438 L 5.613281 0.0273438 C 5.835938 0.0273438 6.398438 -0.0859375 6.398438 -0.953125 L 6.398438 -22.136719 C 6.398438 -23.007812 5.835938 -23.121094 5.613281 -23.121094 Z M 5.613281 -23.121094 "/></g></g></g><g fill="#1b0b54" fill-opacity="1"><g transform="translate(221.409917, 83.629324)"><g><path d="M 21.632812 -23.121094 L 3.058594 -23.121094 C 2.804688 -23.121094 2.246094 -23.035156 2.246094 -22.167969 L 2.246094 -19.976562 C 2.246094 -19.050781 2.804688 -18.96875 3.058594 -18.96875 L 10.269531 -18.96875 L 10.269531 -0.953125 C 10.269531 -0.0859375 10.832031 0 11.054688 0 L 13.636719 0 C 13.890625 0 14.421875 -0.0859375 14.421875 -0.953125 L 14.421875 -18.96875 L 21.632812 -18.96875 C 21.886719 -18.96875 22.445312 -19.050781 22.445312 -19.976562 L 22.445312 -22.167969 C 22.445312 -23.035156 21.886719 -23.121094 21.632812 -23.121094 Z M 21.632812 -23.121094 "/></g></g></g><g fill="#1b0b54" fill-opacity="1"><g transform="translate(247.499598, 83.629324)"><g><path d="M 17.285156 -20.511719 C 17.226562 -20.652344 17.171875 -20.820312 17.117188 -20.929688 C 16.667969 -22.390625 15.320312 -23.429688 13.777344 -23.429688 C 13.074219 -23.429688 12.402344 -23.230469 11.839844 -22.839844 C 11.671875 -22.753906 11.53125 -22.644531 11.417969 -22.558594 C 11 -22.195312 10.578125 -21.519531 10.183594 -20.511719 L 2.355469 -1.066406 C 2.273438 -0.8125 2.246094 -0.5625 2.300781 -0.394531 C 2.328125 -0.222656 2.46875 0.0273438 2.917969 0.0273438 L 6.003906 0.0273438 C 6.371094 0.0273438 6.648438 -0.195312 6.789062 -0.5625 L 8.390625 -4.574219 L 14.535156 -4.574219 C 14.84375 -4.574219 15.125 -4.714844 15.265625 -4.964844 C 15.433594 -5.191406 15.460938 -5.5 15.375 -5.78125 L 14.367188 -8.277344 C 14.226562 -8.613281 13.917969 -8.839844 13.550781 -8.839844 L 10.074219 -8.839844 L 13.664062 -17.929688 C 13.691406 -17.984375 13.71875 -18.011719 13.71875 -18.011719 L 13.832031 -18.011719 C 13.832031 -18.011719 13.832031 -18.011719 13.859375 -17.957031 L 20.820312 -0.589844 C 20.960938 -0.195312 21.242188 0.0273438 21.632812 0.0273438 L 24.636719 0.0273438 C 25.085938 0.0273438 25.195312 -0.253906 25.253906 -0.394531 C 25.308594 -0.5625 25.28125 -0.8125 25.167969 -1.066406 Z M 17.285156 -20.511719 "/></g></g></g><g fill="#1b0b54" fill-opacity="1"><g transform="translate(276.450725, 83.629324)"><g><path d="M 18.433594 -4.152344 L 9.316406 -4.152344 C 8.726562 -4.152344 8.25 -4.207031 7.855469 -4.347656 C 7.519531 -4.460938 7.238281 -4.65625 7.042969 -4.964844 C 6.816406 -5.273438 6.648438 -5.695312 6.566406 -6.199219 C 6.453125 -6.761719 6.425781 -7.464844 6.425781 -8.304688 L 6.425781 -22.136719 C 6.425781 -23.035156 5.863281 -23.121094 5.640625 -23.121094 L 3.058594 -23.121094 C 2.804688 -23.121094 2.246094 -23.035156 2.246094 -22.136719 L 2.246094 -8.78125 C 2.246094 -7.210938 2.386719 -5.863281 2.636719 -4.769531 C 2.890625 -3.648438 3.28125 -2.722656 3.84375 -2.019531 C 4.40625 -1.289062 5.132812 -0.757812 6.03125 -0.449219 C 6.875 -0.140625 7.941406 0.0273438 9.175781 0.0273438 L 18.433594 0.0273438 C 18.6875 0.0273438 19.21875 -0.0859375 19.21875 -0.953125 L 19.21875 -3.171875 C 19.21875 -4.039062 18.6875 -4.152344 18.433594 -4.152344 Z M 18.433594 -4.152344 "/></g></g></g><g fill="#1b0b54" fill-opacity="1"><g transform="translate(226.282954, 101.506669)"><g><path d="M 5.839844 -5.105469 L 2.726562 -5.105469 C 2.574219 -5.105469 2.375 -5.167969 2.375 -5.675781 L 2.375 -6.441406 C 2.375 -6.628906 2.40625 -6.773438 2.457031 -6.878906 C 2.5 -6.941406 2.5625 -7.011719 2.738281 -7.011719 L 6.960938 -7.011719 C 7.042969 -7.011719 7.25 -7.042969 7.25 -7.367188 L 7.25 -8.195312 C 7.25 -8.515625 7.042969 -8.546875 6.960938 -8.546875 L 2.488281 -8.546875 C 1.917969 -8.546875 1.503906 -8.363281 1.234375 -7.976562 C 0.964844 -7.605469 0.828125 -7.105469 0.828125 -6.503906 L 0.828125 -5.714844 C 0.828125 -5 0.976562 -4.417969 1.234375 -4.054688 C 1.554688 -3.632812 2.035156 -3.570312 2.46875 -3.570312 L 5.582031 -3.570312 C 5.738281 -3.570312 5.945312 -3.507812 5.945312 -3 L 5.945312 -2.105469 C 5.945312 -1.917969 5.914062 -1.773438 5.851562 -1.671875 C 5.808594 -1.609375 5.746094 -1.535156 5.570312 -1.535156 L 1.140625 -1.535156 C 1.046875 -1.535156 0.839844 -1.503906 0.839844 -1.183594 L 0.839844 -0.351562 C 0.839844 -0.03125 1.046875 0 1.140625 0 L 5.820312 0 C 6.390625 0 6.816406 -0.195312 7.085938 -0.582031 C 7.34375 -0.953125 7.480469 -1.441406 7.480469 -2.042969 L 7.480469 -2.957031 C 7.480469 -3.632812 7.34375 -4.160156 7.074219 -4.535156 C 6.796875 -4.90625 6.378906 -5.105469 5.839844 -5.105469 Z M 5.839844 -5.105469 "/></g></g></g><g fill="#1b0b54" fill-opacity="1"><g transform="translate(238.254322, 101.506669)"><g><path d="M 5.800781 -3.558594 C 5.589844 -3.902344 5.382812 -4.179688 5.175781 -4.378906 C 5.238281 -4.460938 5.300781 -4.542969 5.375 -4.648438 C 5.457031 -4.78125 5.550781 -4.9375 5.652344 -5.113281 L 7.367188 -8.121094 C 7.398438 -8.195312 7.40625 -8.277344 7.398438 -8.371094 C 7.367188 -8.484375 7.28125 -8.546875 7.15625 -8.546875 L 6.132812 -8.546875 C 6.015625 -8.546875 5.945312 -8.527344 5.902344 -8.484375 C 5.863281 -8.453125 5.820312 -8.414062 5.789062 -8.339844 L 4.222656 -5.570312 C 4.160156 -5.46875 4.097656 -5.382812 4.046875 -5.3125 C 3.992188 -5.25 3.933594 -5.199219 3.878906 -5.167969 C 3.816406 -5.136719 3.746094 -5.113281 3.660156 -5.105469 C 3.578125 -5.09375 3.464844 -5.082031 3.332031 -5.082031 L 2.375 -5.082031 L 2.375 -8.183594 C 2.375 -8.515625 2.167969 -8.546875 2.085938 -8.546875 L 1.128906 -8.546875 C 1.046875 -8.546875 0.828125 -8.515625 0.828125 -8.183594 L 0.828125 -0.351562 C 0.828125 -0.03125 1.046875 0.0117188 1.128906 0.0117188 L 2.085938 0.0117188 C 2.167969 0.0117188 2.375 -0.03125 2.375 -0.351562 L 2.375 -3.546875 L 3.421875 -3.546875 C 3.671875 -3.546875 3.859375 -3.515625 3.984375 -3.445312 C 4.097656 -3.382812 4.210938 -3.246094 4.324219 -3.039062 L 5.945312 -0.195312 C 5.976562 -0.136719 6.015625 -0.0820312 6.058594 -0.0507812 C 6.101562 -0.0117188 6.171875 0.0117188 6.277344 0.0117188 L 7.398438 0.0117188 C 7.542969 0.0117188 7.625 -0.0742188 7.636719 -0.207031 C 7.644531 -0.3125 7.636719 -0.394531 7.59375 -0.445312 Z M 5.800781 -3.558594 "/></g></g></g><g fill="#1b0b54" fill-opacity="1"><g transform="translate(250.391669, 101.506669)"><g><path d="M 7.066406 -1.855469 L 3.414062 -1.855469 C 3.195312 -1.855469 3.019531 -1.886719 2.875 -1.929688 C 2.738281 -1.980469 2.644531 -2.054688 2.5625 -2.15625 C 2.480469 -2.273438 2.417969 -2.425781 2.386719 -2.625 C 2.375 -2.675781 2.375 -2.75 2.367188 -2.800781 C 2.367188 -2.800781 2.375 -3.546875 2.386719 -3.546875 L 7.023438 -3.546875 C 7.105469 -3.546875 7.3125 -3.589844 7.3125 -3.910156 L 7.3125 -4.730469 C 7.3125 -5.050781 7.105469 -5.082031 7.023438 -5.082031 L 1.671875 -5.074219 C 1.371094 -5.050781 1.109375 -4.898438 0.964844 -4.636719 C 0.914062 -4.554688 0.871094 -4.472656 0.851562 -4.378906 L 0.828125 -3.070312 L 0.828125 -3.019531 C 0.839844 -2.53125 0.890625 -2.117188 0.964844 -1.773438 C 1.058594 -1.359375 1.214844 -1.015625 1.410156 -0.757812 C 1.617188 -0.488281 1.886719 -0.300781 2.21875 -0.1875 C 2.542969 -0.0625 2.925781 -0.0117188 3.382812 -0.0117188 L 7.066406 -0.0117188 C 7.15625 -0.0117188 7.367188 -0.0429688 7.367188 -0.363281 L 7.367188 -1.503906 C 7.367188 -1.824219 7.15625 -1.855469 7.066406 -1.855469 Z M 7.074219 -8.570312 L 1.109375 -8.570312 C 1.027344 -8.570312 0.828125 -8.527344 0.828125 -8.195312 L 0.828125 -7.386719 C 0.828125 -7.066406 1.027344 -7.035156 1.109375 -7.035156 L 7.074219 -7.023438 C 7.15625 -7.023438 7.367188 -7.066406 7.367188 -7.386719 L 7.367188 -8.207031 C 7.367188 -8.527344 7.15625 -8.570312 7.074219 -8.570312 Z M 7.074219 -8.570312 "/></g></g></g><g fill="#1b0b54" fill-opacity="1"><g transform="translate(262.248926, 101.506669)"><g><path d="M 8 -8.546875 L 1.128906 -8.546875 C 1.039062 -8.546875 0.828125 -8.515625 0.828125 -8.195312 L 0.828125 -7.386719 C 0.828125 -7.042969 1.039062 -7.011719 1.128906 -7.011719 L 3.796875 -7.011719 L 3.796875 -0.351562 C 3.796875 -0.03125 4.003906 0 4.085938 0 L 5.042969 0 C 5.136719 0 5.332031 -0.03125 5.332031 -0.351562 L 5.332031 -7.011719 L 8 -7.011719 C 8.09375 -7.011719 8.300781 -7.042969 8.300781 -7.386719 L 8.300781 -8.195312 C 8.300781 -8.515625 8.09375 -8.546875 8 -8.546875 Z M 8 -8.546875 "/></g></g></g><g fill="#1b0b54" fill-opacity="1"><g transform="translate(275.039803, 101.506669)"><g><path d="M 7.167969 -8.546875 L 3.390625 -8.546875 C 2.9375 -8.546875 2.542969 -8.484375 2.21875 -8.371094 C 1.886719 -8.246094 1.617188 -8.050781 1.421875 -7.789062 C 1.214844 -7.53125 1.058594 -7.1875 0.964844 -6.773438 C 0.871094 -6.371094 0.828125 -5.871094 0.828125 -5.300781 L 0.828125 -3.246094 C 0.828125 -2.667969 0.871094 -2.167969 0.964844 -1.753906 C 1.058594 -1.347656 1.214844 -1.007812 1.421875 -0.738281 C 1.628906 -0.476562 1.898438 -0.28125 2.21875 -0.164062 C 2.542969 -0.0507812 2.9375 0.0117188 3.390625 0.0117188 L 7.167969 0.0117188 C 7.25 0.0117188 7.460938 -0.03125 7.460938 -0.351562 L 7.460938 -1.171875 C 7.460938 -1.492188 7.25 -1.535156 7.167969 -1.535156 L 3.445312 -1.535156 C 3.226562 -1.535156 3.039062 -1.554688 2.90625 -1.609375 C 2.769531 -1.648438 2.675781 -1.722656 2.59375 -1.835938 C 2.511719 -1.941406 2.457031 -2.09375 2.417969 -2.292969 C 2.386719 -2.5 2.367188 -2.757812 2.367188 -3.070312 L 2.367188 -5.488281 C 2.367188 -5.800781 2.386719 -6.058594 2.417969 -6.253906 C 2.457031 -6.453125 2.511719 -6.597656 2.59375 -6.710938 C 2.675781 -6.828125 2.769531 -6.898438 2.90625 -6.941406 C 3.039062 -6.992188 3.226562 -7.011719 3.445312 -7.011719 L 7.167969 -7.011719 C 7.25 -7.011719 7.460938 -7.054688 7.460938 -7.386719 L 7.460938 -8.183594 C 7.460938 -8.507812 7.25 -8.546875 7.167969 -8.546875 Z M 7.167969 -8.546875 "/></g></g></g><g fill="#1b0b54" fill-opacity="1"><g transform="translate(286.990424, 101.506669)"><g><path d="M 7.53125 -8.546875 L 6.578125 -8.546875 C 6.496094 -8.546875 6.296875 -8.507812 6.296875 -8.183594 L 6.296875 -5.082031 L 2.367188 -5.082031 L 2.367188 -8.183594 C 2.367188 -8.507812 2.167969 -8.546875 2.074219 -8.546875 L 1.128906 -8.546875 C 1.039062 -8.546875 0.828125 -8.507812 0.828125 -8.183594 L 0.828125 -0.351562 C 0.828125 -0.03125 1.039062 0.0117188 1.128906 0.0117188 L 2.074219 0.0117188 C 2.167969 0.0117188 2.367188 -0.03125 2.367188 -0.351562 L 2.367188 -3.546875 L 6.296875 -3.546875 L 6.296875 -0.351562 C 6.296875 -0.03125 6.496094 0.0117188 6.578125 0.0117188 L 7.53125 0.0117188 C 7.625 0.0117188 7.832031 -0.03125 7.832031 -0.351562 L 7.832031 -8.183594 C 7.832031 -8.507812 7.625 -8.546875 7.53125 -8.546875 Z M 7.53125 -8.546875 "/></g></g></g></svg>